<svg width="57" height="57" viewBox="0 0 57 57" fill="none" xmlns="http://www.w3.org/2000/svg">
<path d="M40.4196 4.86402L38.1277 4.24414L36.8856 8.82789L39.1798 9.45014C41.1837 9.99255 43.0103 11.0508 44.4776 12.5193C45.9448 13.9878 47.0015 15.8154 47.5422 17.8196L48.1597 20.1115L52.7458 18.8741L52.1283 16.5823C51.3714 13.7759 49.8919 11.2171 47.8374 9.16095C45.783 7.10482 43.2253 5.62325 40.4196 4.86402ZM38.2488 12.8868L35.957 12.2669L34.7148 16.8506L37.0091 17.4729C37.6101 17.6357 38.1579 17.9531 38.5979 18.3936C39.0379 18.8341 39.3549 19.3822 39.5171 19.9833L40.1346 22.2751L44.7207 21.0401L44.1032 18.7459C43.7247 17.3427 42.985 16.0633 41.9578 15.0352C40.9305 14.0072 39.6517 13.2664 38.2488 12.8868Z" fill="white"/>
<path d="M22.7526 4.75H2.37507V7.125C2.35948 16.268 4.99617 25.2192 9.96557 32.8938C13.6279 38.5528 18.4472 43.3722 24.1063 47.0345C31.7809 52.0039 40.7321 54.6406 49.8751 54.625H52.2501V34.2475L36.3613 30.7159L31.9438 35.1334C27.9015 32.536 24.4655 29.0992 21.8691 25.0562L26.2842 20.6387L22.7526 4.75Z" fill="white"/>
</svg>
