<svg width="376" height="376" viewBox="0 0 376 376" fill="none" xmlns="http://www.w3.org/2000/svg">
<g filter="url(#filter0_dddddd_1_17387)">
<rect x="63" y="63" width="250" height="250" rx="20" fill="black"/>
<rect x="65" y="65" width="246" height="246" rx="18" stroke="white" stroke-width="4"/>
</g>
<path d="M95.1761 110.384C93.3415 110.384 91.6988 109.936 90.2481 109.04C88.7975 108.123 87.6561 106.8 86.8241 105.072C85.9921 103.344 85.5761 101.253 85.5761 98.8C85.5761 96.3467 85.9921 94.256 86.8241 92.528C87.6561 90.8 88.7975 89.488 90.2481 88.592C91.6988 87.6747 93.3415 87.216 95.1761 87.216C97.0321 87.216 98.6748 87.6747 100.104 88.592C101.555 89.488 102.696 90.8 103.528 92.528C104.36 94.256 104.776 96.3467 104.776 98.8C104.776 101.253 104.36 103.344 103.528 105.072C102.696 106.8 101.555 108.123 100.104 109.04C98.6748 109.936 97.0321 110.384 95.1761 110.384ZM95.1761 106C96.0508 106 96.8081 105.755 97.4481 105.264C98.1095 104.773 98.6215 103.995 98.9841 102.928C99.3681 101.861 99.5601 100.485 99.5601 98.8C99.5601 97.1147 99.3681 95.7387 98.9841 94.672C98.6215 93.6053 98.1095 92.8267 97.4481 92.336C96.8081 91.8453 96.0508 91.6 95.1761 91.6C94.3228 91.6 93.5655 91.8453 92.9041 92.336C92.2641 92.8267 91.7521 93.6053 91.3681 94.672C91.0055 95.7387 90.8241 97.1147 90.8241 98.8C90.8241 100.485 91.0055 101.861 91.3681 102.928C91.7521 103.995 92.2641 104.773 92.9041 105.264C93.5655 105.755 94.3228 106 95.1761 106ZM114.246 110.384C112.689 110.384 111.142 110.181 109.606 109.776C108.07 109.349 106.769 108.752 105.702 107.984L107.718 104.016C108.572 104.635 109.564 105.125 110.694 105.488C111.825 105.851 112.966 106.032 114.118 106.032C115.42 106.032 116.444 105.776 117.19 105.264C117.937 104.752 118.31 104.048 118.31 103.152C118.31 102.299 117.98 101.627 117.318 101.136C116.657 100.645 115.59 100.4 114.118 100.4H111.75V96.976L117.99 89.904L118.566 91.76H106.822V87.6H122.502V90.96L116.294 98.032L113.67 96.528H115.174C117.926 96.528 120.006 97.1467 121.414 98.384C122.822 99.6213 123.526 101.211 123.526 103.152C123.526 104.411 123.196 105.595 122.534 106.704C121.873 107.792 120.86 108.677 119.494 109.36C118.129 110.043 116.38 110.384 114.246 110.384Z" fill="white"/>
<path d="M91.32 172.28C90.1733 172.28 89.0667 172.14 88 171.86C86.9467 171.567 86.0867 171.193 85.42 170.74L86.72 167.82C87.3467 168.22 88.0667 168.553 88.88 168.82C89.7067 169.073 90.5267 169.2 91.34 169.2C91.8867 169.2 92.3267 169.153 92.66 169.06C92.9933 168.953 93.2333 168.82 93.38 168.66C93.54 168.487 93.62 168.287 93.62 168.06C93.62 167.74 93.4733 167.487 93.18 167.3C92.8867 167.113 92.5067 166.96 92.04 166.84C91.5733 166.72 91.0533 166.6 90.48 166.48C89.92 166.36 89.3533 166.207 88.78 166.02C88.22 165.833 87.7067 165.593 87.24 165.3C86.7733 164.993 86.3933 164.6 86.1 164.12C85.8067 163.627 85.66 163.007 85.66 162.26C85.66 161.42 85.8867 160.66 86.34 159.98C86.8067 159.3 87.5 158.753 88.42 158.34C89.34 157.927 90.4867 157.72 91.86 157.72C92.78 157.72 93.68 157.827 94.56 158.04C95.4533 158.24 96.2467 158.54 96.94 158.94L95.72 161.88C95.0533 161.52 94.3933 161.253 93.74 161.08C93.0867 160.893 92.4533 160.8 91.84 160.8C91.2933 160.8 90.8533 160.86 90.52 160.98C90.1867 161.087 89.9467 161.233 89.8 161.42C89.6533 161.607 89.58 161.82 89.58 162.06C89.58 162.367 89.72 162.613 90 162.8C90.2933 162.973 90.6733 163.12 91.14 163.24C91.62 163.347 92.14 163.46 92.7 163.58C93.2733 163.7 93.84 163.853 94.4 164.04C94.9733 164.213 95.4933 164.453 95.96 164.76C96.4267 165.053 96.8 165.447 97.08 165.94C97.3733 166.42 97.52 167.027 97.52 167.76C97.52 168.573 97.2867 169.327 96.82 170.02C96.3667 170.7 95.68 171.247 94.76 171.66C93.8533 172.073 92.7067 172.28 91.32 172.28ZM105.789 172V169.98L105.529 169.48V165.76C105.529 165.16 105.343 164.7 104.969 164.38C104.609 164.047 104.029 163.88 103.229 163.88C102.709 163.88 102.183 163.967 101.649 164.14C101.116 164.3 100.663 164.527 100.289 164.82L99.0092 162.24C99.6226 161.84 100.356 161.533 101.209 161.32C102.076 161.093 102.936 160.98 103.789 160.98C105.549 160.98 106.909 161.387 107.869 162.2C108.843 163 109.329 164.26 109.329 165.98V172H105.789ZM102.589 172.18C101.723 172.18 100.989 172.033 100.389 171.74C99.7892 171.447 99.3292 171.047 99.0092 170.54C98.7026 170.033 98.5492 169.467 98.5492 168.84C98.5492 168.173 98.7159 167.6 99.0492 167.12C99.3959 166.627 99.9226 166.253 100.629 166C101.336 165.733 102.249 165.6 103.369 165.6H105.929V167.58H103.889C103.276 167.58 102.843 167.68 102.589 167.88C102.349 168.08 102.229 168.347 102.229 168.68C102.229 169.013 102.356 169.28 102.609 169.48C102.863 169.68 103.209 169.78 103.649 169.78C104.063 169.78 104.436 169.68 104.769 169.48C105.116 169.267 105.369 168.947 105.529 168.52L106.049 169.92C105.849 170.667 105.456 171.233 104.869 171.62C104.296 171.993 103.536 172.18 102.589 172.18ZM111.728 172V157.16H115.528V172H111.728ZM123.677 172.18C122.397 172.18 121.277 171.94 120.317 171.46C119.371 170.967 118.631 170.3 118.097 169.46C117.577 168.607 117.317 167.64 117.317 166.56C117.317 165.48 117.571 164.52 118.077 163.68C118.597 162.827 119.311 162.167 120.217 161.7C121.124 161.22 122.144 160.98 123.277 160.98C124.344 160.98 125.317 161.2 126.197 161.64C127.077 162.067 127.777 162.7 128.297 163.54C128.817 164.38 129.077 165.4 129.077 166.6C129.077 166.733 129.071 166.887 129.057 167.06C129.044 167.233 129.031 167.393 129.017 167.54H120.437V165.54H126.997L125.557 166.1C125.571 165.607 125.477 165.18 125.277 164.82C125.091 164.46 124.824 164.18 124.477 163.98C124.144 163.78 123.751 163.68 123.297 163.68C122.844 163.68 122.444 163.78 122.097 163.98C121.764 164.18 121.504 164.467 121.317 164.84C121.131 165.2 121.037 165.627 121.037 166.12V166.7C121.037 167.233 121.144 167.693 121.357 168.08C121.584 168.467 121.904 168.767 122.317 168.98C122.731 169.18 123.224 169.28 123.797 169.28C124.331 169.28 124.784 169.207 125.157 169.06C125.544 168.9 125.924 168.66 126.297 168.34L128.297 170.42C127.777 170.993 127.137 171.433 126.377 171.74C125.617 172.033 124.717 172.18 123.677 172.18ZM134.769 172.18C133.849 172.18 132.949 172.073 132.069 171.86C131.203 171.647 130.503 171.38 129.969 171.06L131.109 168.46C131.616 168.767 132.209 169.013 132.889 169.2C133.569 169.373 134.236 169.46 134.889 169.46C135.529 169.46 135.969 169.393 136.209 169.26C136.463 169.127 136.589 168.947 136.589 168.72C136.589 168.507 136.469 168.353 136.229 168.26C136.003 168.153 135.696 168.073 135.309 168.02C134.936 167.967 134.523 167.907 134.069 167.84C133.616 167.773 133.156 167.687 132.689 167.58C132.236 167.46 131.816 167.287 131.429 167.06C131.056 166.82 130.756 166.5 130.529 166.1C130.303 165.7 130.189 165.193 130.189 164.58C130.189 163.887 130.389 163.273 130.789 162.74C131.203 162.193 131.803 161.767 132.589 161.46C133.376 161.14 134.336 160.98 135.469 160.98C136.229 160.98 136.996 161.06 137.769 161.22C138.556 161.367 139.216 161.593 139.749 161.9L138.609 164.48C138.076 164.173 137.543 163.967 137.009 163.86C136.476 163.74 135.969 163.68 135.489 163.68C134.849 163.68 134.396 163.753 134.129 163.9C133.876 164.047 133.749 164.227 133.749 164.44C133.749 164.653 133.863 164.82 134.089 164.94C134.316 165.047 134.616 165.133 134.989 165.2C135.376 165.253 135.796 165.313 136.249 165.38C136.703 165.433 137.156 165.52 137.609 165.64C138.076 165.76 138.496 165.94 138.869 166.18C139.256 166.407 139.563 166.72 139.789 167.12C140.016 167.507 140.129 168.007 140.129 168.62C140.129 169.287 139.923 169.887 139.509 170.42C139.109 170.953 138.509 171.38 137.709 171.7C136.923 172.02 135.943 172.18 134.769 172.18ZM146.087 172L152.267 158H156.167L162.367 172H158.247L153.407 159.94H154.967L150.127 172H146.087ZM149.467 169.28L150.487 166.36H157.327L158.347 169.28H149.467ZM167.675 172.18C166.795 172.18 166.001 172.007 165.295 171.66C164.601 171.313 164.055 170.773 163.655 170.04C163.268 169.293 163.075 168.353 163.075 167.22V161.16H166.875V166.6C166.875 167.44 167.028 168.04 167.335 168.4C167.655 168.76 168.101 168.94 168.675 168.94C169.048 168.94 169.388 168.853 169.695 168.68C170.001 168.507 170.248 168.233 170.435 167.86C170.621 167.473 170.715 166.98 170.715 166.38V161.16H174.515V172H170.895V168.94L171.595 169.8C171.221 170.6 170.681 171.2 169.975 171.6C169.268 171.987 168.501 172.18 167.675 172.18ZM181.682 172.18C180.696 172.18 179.796 171.953 178.982 171.5C178.182 171.033 177.542 170.387 177.062 169.56C176.582 168.72 176.342 167.72 176.342 166.56C176.342 165.413 176.582 164.427 177.062 163.6C177.542 162.76 178.182 162.113 178.982 161.66C179.796 161.207 180.696 160.98 181.682 160.98C182.616 160.98 183.402 161.18 184.042 161.58C184.696 161.98 185.189 162.593 185.522 163.42C185.856 164.247 186.022 165.293 186.022 166.56C186.022 167.853 185.862 168.913 185.542 169.74C185.222 170.567 184.742 171.18 184.102 171.58C183.462 171.98 182.656 172.18 181.682 172.18ZM182.482 169.16C182.909 169.16 183.289 169.06 183.622 168.86C183.969 168.66 184.242 168.367 184.442 167.98C184.642 167.58 184.742 167.107 184.742 166.56C184.742 166.013 184.642 165.553 184.442 165.18C184.242 164.793 183.969 164.5 183.622 164.3C183.289 164.1 182.909 164 182.482 164C182.042 164 181.649 164.1 181.302 164.3C180.969 164.5 180.702 164.793 180.502 165.18C180.302 165.553 180.202 166.013 180.202 166.56C180.202 167.107 180.302 167.58 180.502 167.98C180.702 168.367 180.969 168.66 181.302 168.86C181.649 169.06 182.042 169.16 182.482 169.16ZM184.862 172V170.14L184.882 166.56L184.682 162.98V157.16H188.482V172H184.862ZM190.927 172V161.16H194.727V172H190.927ZM192.827 159.96C192.134 159.96 191.574 159.767 191.147 159.38C190.72 158.993 190.507 158.513 190.507 157.94C190.507 157.367 190.72 156.887 191.147 156.5C191.574 156.113 192.134 155.92 192.827 155.92C193.52 155.92 194.08 156.107 194.507 156.48C194.934 156.84 195.147 157.307 195.147 157.88C195.147 158.48 194.934 158.98 194.507 159.38C194.094 159.767 193.534 159.96 192.827 159.96ZM202.037 172.18C200.65 172.18 199.57 171.84 198.797 171.16C198.023 170.467 197.637 169.427 197.637 168.04V158.74H201.437V168C201.437 168.387 201.543 168.693 201.757 168.92C201.97 169.133 202.243 169.24 202.577 169.24C203.03 169.24 203.417 169.127 203.737 168.9L204.677 171.56C204.357 171.773 203.963 171.927 203.497 172.02C203.03 172.127 202.543 172.18 202.037 172.18ZM196.057 164.4V161.56H203.917V164.4H196.057Z" fill="#0C72BA"/>
<path d="M87.34 205.969H92.15V206.788H87.34V205.969ZM87.444 210.168H92.917V211H86.482V201.9H92.722V202.732H87.444V210.168ZM98.4673 204.11C99.022 204.11 99.5073 204.218 99.9233 204.435C100.348 204.643 100.677 204.964 100.911 205.397C101.154 205.83 101.275 206.376 101.275 207.035V211H100.352V207.126C100.352 206.407 100.17 205.865 99.8063 205.501C99.451 205.128 98.9483 204.942 98.2983 204.942C97.813 204.942 97.3883 205.042 97.0243 205.241C96.669 205.432 96.3916 205.713 96.1923 206.086C96.0016 206.45 95.9063 206.892 95.9063 207.412V211H94.9833V204.175H95.8673V206.047L95.7243 205.696C95.941 205.202 96.2876 204.816 96.7643 204.539C97.241 204.253 97.8086 204.11 98.4673 204.11ZM106.485 211.065C105.835 211.065 105.25 210.918 104.73 210.623C104.219 210.328 103.816 209.921 103.521 209.401C103.227 208.872 103.079 208.266 103.079 207.581C103.079 206.888 103.227 206.281 103.521 205.761C103.816 205.241 104.219 204.838 104.73 204.552C105.25 204.257 105.835 204.11 106.485 204.11C107.083 204.11 107.616 204.244 108.084 204.513C108.561 204.782 108.938 205.176 109.215 205.696C109.501 206.207 109.644 206.836 109.644 207.581C109.644 208.318 109.506 208.946 109.228 209.466C108.951 209.986 108.574 210.385 108.097 210.662C107.629 210.931 107.092 211.065 106.485 211.065ZM106.55 210.246C107.036 210.246 107.469 210.138 107.85 209.921C108.24 209.696 108.544 209.384 108.76 208.985C108.986 208.578 109.098 208.11 109.098 207.581C109.098 207.044 108.986 206.576 108.76 206.177C108.544 205.778 108.24 205.471 107.85 205.254C107.469 205.029 107.036 204.916 106.55 204.916C106.074 204.916 105.645 205.029 105.263 205.254C104.882 205.471 104.579 205.778 104.353 206.177C104.128 206.576 104.015 207.044 104.015 207.581C104.015 208.11 104.128 208.578 104.353 208.985C104.579 209.384 104.882 209.696 105.263 209.921C105.645 210.138 106.074 210.246 106.55 210.246ZM109.124 211V208.946L109.215 207.568L109.085 206.19V201.354H110.008V211H109.124ZM112.072 207.88V207.074H115.478V207.88H112.072ZM119.828 211.065C119.186 211.065 118.692 210.892 118.346 210.545C117.999 210.198 117.826 209.709 117.826 209.076V202.667H118.749V209.024C118.749 209.423 118.848 209.73 119.048 209.947C119.256 210.164 119.55 210.272 119.932 210.272C120.339 210.272 120.677 210.155 120.946 209.921L121.271 210.584C121.089 210.749 120.868 210.87 120.608 210.948C120.356 211.026 120.096 211.065 119.828 211.065ZM116.604 204.942V204.175H120.829V204.942H116.604ZM125.492 211.065C124.833 211.065 124.24 210.918 123.711 210.623C123.191 210.32 122.779 209.908 122.476 209.388C122.173 208.859 122.021 208.257 122.021 207.581C122.021 206.896 122.173 206.294 122.476 205.774C122.779 205.254 123.191 204.847 123.711 204.552C124.231 204.257 124.825 204.11 125.492 204.11C126.168 204.11 126.766 204.257 127.286 204.552C127.815 204.847 128.226 205.254 128.521 205.774C128.824 206.294 128.976 206.896 128.976 207.581C128.976 208.257 128.824 208.859 128.521 209.388C128.226 209.908 127.815 210.32 127.286 210.623C126.757 210.918 126.159 211.065 125.492 211.065ZM125.492 210.246C125.986 210.246 126.424 210.138 126.805 209.921C127.186 209.696 127.485 209.384 127.702 208.985C127.927 208.578 128.04 208.11 128.04 207.581C128.04 207.044 127.927 206.576 127.702 206.177C127.485 205.778 127.186 205.471 126.805 205.254C126.424 205.029 125.99 204.916 125.505 204.916C125.02 204.916 124.586 205.029 124.205 205.254C123.824 205.471 123.52 205.778 123.295 206.177C123.07 206.576 122.957 207.044 122.957 207.581C122.957 208.11 123.07 208.578 123.295 208.985C123.52 209.384 123.824 209.696 124.205 209.921C124.586 210.138 125.015 210.246 125.492 210.246ZM130.48 207.88V207.074H133.886V207.88H130.48ZM138.977 211.065C138.266 211.065 137.642 210.918 137.105 210.623C136.568 210.32 136.147 209.908 135.844 209.388C135.541 208.859 135.389 208.257 135.389 207.581C135.389 206.905 135.532 206.307 135.818 205.787C136.113 205.267 136.511 204.86 137.014 204.565C137.525 204.262 138.097 204.11 138.73 204.11C139.371 204.11 139.939 204.257 140.433 204.552C140.936 204.838 141.33 205.245 141.616 205.774C141.902 206.294 142.045 206.896 142.045 207.581C142.045 207.624 142.041 207.672 142.032 207.724C142.032 207.767 142.032 207.815 142.032 207.867H136.091V207.178H141.538L141.174 207.451C141.174 206.957 141.066 206.519 140.849 206.138C140.641 205.748 140.355 205.445 139.991 205.228C139.627 205.011 139.207 204.903 138.73 204.903C138.262 204.903 137.842 205.011 137.469 205.228C137.096 205.445 136.806 205.748 136.598 206.138C136.39 206.528 136.286 206.974 136.286 207.477V207.62C136.286 208.14 136.399 208.599 136.624 208.998C136.858 209.388 137.179 209.696 137.586 209.921C138.002 210.138 138.474 210.246 139.003 210.246C139.419 210.246 139.805 210.172 140.16 210.025C140.524 209.878 140.836 209.652 141.096 209.349L141.616 209.947C141.313 210.311 140.931 210.588 140.472 210.779C140.021 210.97 139.523 211.065 138.977 211.065ZM147.408 204.11C147.962 204.11 148.448 204.218 148.864 204.435C149.288 204.643 149.618 204.964 149.852 205.397C150.094 205.83 150.216 206.376 150.216 207.035V211H149.293V207.126C149.293 206.407 149.111 205.865 148.747 205.501C148.391 205.128 147.889 204.942 147.239 204.942C146.753 204.942 146.329 205.042 145.965 205.241C145.609 205.432 145.332 205.713 145.133 206.086C144.942 206.45 144.847 206.892 144.847 207.412V211H143.924V204.175H144.808V206.047L144.665 205.696C144.881 205.202 145.228 204.816 145.705 204.539C146.181 204.253 146.749 204.11 147.408 204.11ZM155.426 211.065C154.776 211.065 154.191 210.918 153.671 210.623C153.16 210.328 152.757 209.921 152.462 209.401C152.167 208.872 152.02 208.266 152.02 207.581C152.02 206.888 152.167 206.281 152.462 205.761C152.757 205.241 153.16 204.838 153.671 204.552C154.191 204.257 154.776 204.11 155.426 204.11C156.024 204.11 156.557 204.244 157.025 204.513C157.502 204.782 157.879 205.176 158.156 205.696C158.442 206.207 158.585 206.836 158.585 207.581C158.585 208.318 158.446 208.946 158.169 209.466C157.892 209.986 157.515 210.385 157.038 210.662C156.57 210.931 156.033 211.065 155.426 211.065ZM155.491 210.246C155.976 210.246 156.41 210.138 156.791 209.921C157.181 209.696 157.484 209.384 157.701 208.985C157.926 208.578 158.039 208.11 158.039 207.581C158.039 207.044 157.926 206.576 157.701 206.177C157.484 205.778 157.181 205.471 156.791 205.254C156.41 205.029 155.976 204.916 155.491 204.916C155.014 204.916 154.585 205.029 154.204 205.254C153.823 205.471 153.519 205.778 153.294 206.177C153.069 206.576 152.956 207.044 152.956 207.581C152.956 208.11 153.069 208.578 153.294 208.985C153.519 209.384 153.823 209.696 154.204 209.921C154.585 210.138 155.014 210.246 155.491 210.246ZM158.065 211V208.946L158.156 207.568L158.026 206.19V201.354H158.949V211H158.065ZM169.199 211V209.492L169.16 209.245V206.723C169.16 206.142 168.995 205.696 168.666 205.384C168.345 205.072 167.864 204.916 167.223 204.916C166.781 204.916 166.36 204.99 165.962 205.137C165.563 205.284 165.225 205.479 164.948 205.722L164.532 205.033C164.878 204.738 165.294 204.513 165.78 204.357C166.265 204.192 166.776 204.11 167.314 204.11C168.198 204.11 168.878 204.331 169.355 204.773C169.84 205.206 170.083 205.869 170.083 206.762V211H169.199ZM166.846 211.065C166.334 211.065 165.888 210.983 165.507 210.818C165.134 210.645 164.848 210.411 164.649 210.116C164.449 209.813 164.35 209.466 164.35 209.076C164.35 208.721 164.432 208.4 164.597 208.114C164.77 207.819 165.047 207.585 165.429 207.412C165.819 207.23 166.339 207.139 166.989 207.139H169.342V207.828H167.015C166.356 207.828 165.897 207.945 165.637 208.179C165.385 208.413 165.26 208.703 165.26 209.05C165.26 209.44 165.411 209.752 165.715 209.986C166.018 210.22 166.443 210.337 166.989 210.337C167.509 210.337 167.955 210.22 168.328 209.986C168.709 209.743 168.986 209.397 169.16 208.946L169.368 209.583C169.194 210.034 168.891 210.393 168.458 210.662C168.033 210.931 167.496 211.065 166.846 211.065ZM176.074 204.11C176.628 204.11 177.114 204.218 177.53 204.435C177.954 204.643 178.284 204.964 178.518 205.397C178.76 205.83 178.882 206.376 178.882 207.035V211H177.959V207.126C177.959 206.407 177.777 205.865 177.413 205.501C177.057 205.128 176.555 204.942 175.905 204.942C175.419 204.942 174.995 205.042 174.631 205.241C174.275 205.432 173.998 205.713 173.799 206.086C173.608 206.45 173.513 206.892 173.513 207.412V211H172.59V204.175H173.474V206.047L173.331 205.696C173.547 205.202 173.894 204.816 174.371 204.539C174.847 204.253 175.415 204.11 176.074 204.11ZM185.652 211V209.492L185.613 209.245V206.723C185.613 206.142 185.448 205.696 185.119 205.384C184.798 205.072 184.317 204.916 183.676 204.916C183.234 204.916 182.814 204.99 182.415 205.137C182.016 205.284 181.678 205.479 181.401 205.722L180.985 205.033C181.332 204.738 181.748 204.513 182.233 204.357C182.718 204.192 183.23 204.11 183.767 204.11C184.651 204.11 185.331 204.331 185.808 204.773C186.293 205.206 186.536 205.869 186.536 206.762V211H185.652ZM183.299 211.065C182.788 211.065 182.341 210.983 181.96 210.818C181.587 210.645 181.301 210.411 181.102 210.116C180.903 209.813 180.803 209.466 180.803 209.076C180.803 208.721 180.885 208.4 181.05 208.114C181.223 207.819 181.501 207.585 181.882 207.412C182.272 207.23 182.792 207.139 183.442 207.139H185.795V207.828H183.468C182.809 207.828 182.35 207.945 182.09 208.179C181.839 208.413 181.713 208.703 181.713 209.05C181.713 209.44 181.865 209.752 182.168 209.986C182.471 210.22 182.896 210.337 183.442 210.337C183.962 210.337 184.408 210.22 184.781 209.986C185.162 209.743 185.44 209.397 185.613 208.946L185.821 209.583C185.648 210.034 185.344 210.393 184.911 210.662C184.486 210.931 183.949 211.065 183.299 211.065ZM189.043 211V201.354H189.966V211H189.043ZM192.586 213.587C192.265 213.587 191.958 213.535 191.663 213.431C191.377 213.327 191.13 213.171 190.922 212.963L191.351 212.274C191.524 212.439 191.711 212.564 191.91 212.651C192.118 212.746 192.348 212.794 192.599 212.794C192.902 212.794 193.162 212.707 193.379 212.534C193.604 212.369 193.817 212.075 194.016 211.65L194.458 210.649L194.562 210.506L197.37 204.175H198.28L194.861 211.819C194.67 212.261 194.458 212.612 194.224 212.872C193.999 213.132 193.752 213.314 193.483 213.418C193.214 213.531 192.915 213.587 192.586 213.587ZM194.406 211.195L191.26 204.175H192.222L195.004 210.441L194.406 211.195ZM201.337 211.065C200.773 211.065 200.24 210.987 199.738 210.831C199.235 210.666 198.841 210.463 198.555 210.22L198.971 209.492C199.248 209.7 199.603 209.882 200.037 210.038C200.47 210.185 200.925 210.259 201.402 210.259C202.052 210.259 202.52 210.159 202.806 209.96C203.092 209.752 203.235 209.479 203.235 209.141C203.235 208.89 203.152 208.695 202.988 208.556C202.832 208.409 202.624 208.3 202.364 208.231C202.104 208.153 201.813 208.088 201.493 208.036C201.172 207.984 200.851 207.923 200.531 207.854C200.219 207.785 199.933 207.685 199.673 207.555C199.413 207.416 199.2 207.23 199.036 206.996C198.88 206.762 198.802 206.45 198.802 206.06C198.802 205.687 198.906 205.354 199.114 205.059C199.322 204.764 199.625 204.535 200.024 204.37C200.431 204.197 200.925 204.11 201.506 204.11C201.948 204.11 202.39 204.171 202.832 204.292C203.274 204.405 203.638 204.556 203.924 204.747L203.521 205.488C203.217 205.28 202.892 205.133 202.546 205.046C202.199 204.951 201.852 204.903 201.506 204.903C200.89 204.903 200.435 205.011 200.141 205.228C199.855 205.436 199.712 205.705 199.712 206.034C199.712 206.294 199.79 206.498 199.946 206.645C200.11 206.792 200.323 206.909 200.583 206.996C200.851 207.074 201.142 207.139 201.454 207.191C201.774 207.243 202.091 207.308 202.403 207.386C202.723 207.455 203.014 207.555 203.274 207.685C203.542 207.806 203.755 207.984 203.911 208.218C204.075 208.443 204.158 208.742 204.158 209.115C204.158 209.514 204.045 209.86 203.82 210.155C203.603 210.441 203.282 210.666 202.858 210.831C202.442 210.987 201.935 211.065 201.337 211.065ZM205.851 211V204.175H206.774V211H205.851ZM206.319 202.667C206.129 202.667 205.968 202.602 205.838 202.472C205.708 202.342 205.643 202.186 205.643 202.004C205.643 201.822 205.708 201.67 205.838 201.549C205.968 201.419 206.129 201.354 206.319 201.354C206.51 201.354 206.67 201.415 206.8 201.536C206.93 201.657 206.995 201.809 206.995 201.991C206.995 202.182 206.93 202.342 206.8 202.472C206.679 202.602 206.519 202.667 206.319 202.667ZM211.176 211.065C210.612 211.065 210.079 210.987 209.577 210.831C209.074 210.666 208.68 210.463 208.394 210.22L208.81 209.492C209.087 209.7 209.442 209.882 209.876 210.038C210.309 210.185 210.764 210.259 211.241 210.259C211.891 210.259 212.359 210.159 212.645 209.96C212.931 209.752 213.074 209.479 213.074 209.141C213.074 208.89 212.991 208.695 212.827 208.556C212.671 208.409 212.463 208.3 212.203 208.231C211.943 208.153 211.652 208.088 211.332 208.036C211.011 207.984 210.69 207.923 210.37 207.854C210.058 207.785 209.772 207.685 209.512 207.555C209.252 207.416 209.039 207.23 208.875 206.996C208.719 206.762 208.641 206.45 208.641 206.06C208.641 205.687 208.745 205.354 208.953 205.059C209.161 204.764 209.464 204.535 209.863 204.37C210.27 204.197 210.764 204.11 211.345 204.11C211.787 204.11 212.229 204.171 212.671 204.292C213.113 204.405 213.477 204.556 213.763 204.747L213.36 205.488C213.056 205.28 212.731 205.133 212.385 205.046C212.038 204.951 211.691 204.903 211.345 204.903C210.729 204.903 210.274 205.011 209.98 205.228C209.694 205.436 209.551 205.705 209.551 206.034C209.551 206.294 209.629 206.498 209.785 206.645C209.949 206.792 210.162 206.909 210.422 206.996C210.69 207.074 210.981 207.139 211.293 207.191C211.613 207.243 211.93 207.308 212.242 207.386C212.562 207.455 212.853 207.555 213.113 207.685C213.381 207.806 213.594 207.984 213.75 208.218C213.914 208.443 213.997 208.742 213.997 209.115C213.997 209.514 213.884 209.86 213.659 210.155C213.442 210.441 213.121 210.666 212.697 210.831C212.281 210.987 211.774 211.065 211.176 211.065ZM221.875 211.065C221.216 211.065 220.622 210.918 220.094 210.623C219.574 210.32 219.162 209.908 218.859 209.388C218.555 208.859 218.404 208.257 218.404 207.581C218.404 206.896 218.555 206.294 218.859 205.774C219.162 205.254 219.574 204.847 220.094 204.552C220.614 204.257 221.207 204.11 221.875 204.11C222.551 204.11 223.149 204.257 223.669 204.552C224.197 204.847 224.609 205.254 224.904 205.774C225.207 206.294 225.359 206.896 225.359 207.581C225.359 208.257 225.207 208.859 224.904 209.388C224.609 209.908 224.197 210.32 223.669 210.623C223.14 210.918 222.542 211.065 221.875 211.065ZM221.875 210.246C222.369 210.246 222.806 210.138 223.188 209.921C223.569 209.696 223.868 209.384 224.085 208.985C224.31 208.578 224.423 208.11 224.423 207.581C224.423 207.044 224.31 206.576 224.085 206.177C223.868 205.778 223.569 205.471 223.188 205.254C222.806 205.029 222.373 204.916 221.888 204.916C221.402 204.916 220.969 205.029 220.588 205.254C220.206 205.471 219.903 205.778 219.678 206.177C219.452 206.576 219.34 207.044 219.34 207.581C219.34 208.11 219.452 208.578 219.678 208.985C219.903 209.384 220.206 209.696 220.588 209.921C220.969 210.138 221.398 210.246 221.875 210.246ZM227.399 211V203.317C227.399 202.71 227.577 202.221 227.932 201.848C228.287 201.475 228.799 201.289 229.466 201.289C229.726 201.289 229.977 201.324 230.22 201.393C230.463 201.462 230.666 201.571 230.831 201.718L230.519 202.407C230.389 202.294 230.237 202.212 230.064 202.16C229.891 202.099 229.704 202.069 229.505 202.069C229.115 202.069 228.816 202.177 228.608 202.394C228.4 202.611 228.296 202.931 228.296 203.356V204.396L228.322 204.825V211H227.399ZM226.177 204.942V204.175H230.402V204.942H226.177ZM235.103 213.587C234.782 213.587 234.474 213.535 234.18 213.431C233.894 213.327 233.647 213.171 233.439 212.963L233.868 212.274C234.041 212.439 234.227 212.564 234.427 212.651C234.635 212.746 234.864 212.794 235.116 212.794C235.419 212.794 235.679 212.707 235.896 212.534C236.121 212.369 236.333 212.075 236.533 211.65L236.975 210.649L237.079 210.506L239.887 204.175H240.797L237.378 211.819C237.187 212.261 236.975 212.612 236.741 212.872C236.515 213.132 236.268 213.314 236 213.418C235.731 213.531 235.432 213.587 235.103 213.587ZM236.923 211.195L233.777 204.175H234.739L237.521 210.441L236.923 211.195ZM244.688 211.065C244.029 211.065 243.436 210.918 242.907 210.623C242.387 210.32 241.975 209.908 241.672 209.388C241.369 208.859 241.217 208.257 241.217 207.581C241.217 206.896 241.369 206.294 241.672 205.774C241.975 205.254 242.387 204.847 242.907 204.552C243.427 204.257 244.021 204.11 244.688 204.11C245.364 204.11 245.962 204.257 246.482 204.552C247.011 204.847 247.422 205.254 247.717 205.774C248.02 206.294 248.172 206.896 248.172 207.581C248.172 208.257 248.02 208.859 247.717 209.388C247.422 209.908 247.011 210.32 246.482 210.623C245.953 210.918 245.355 211.065 244.688 211.065ZM244.688 210.246C245.182 210.246 245.62 210.138 246.001 209.921C246.382 209.696 246.681 209.384 246.898 208.985C247.123 208.578 247.236 208.11 247.236 207.581C247.236 207.044 247.123 206.576 246.898 206.177C246.681 205.778 246.382 205.471 246.001 205.254C245.62 205.029 245.186 204.916 244.701 204.916C244.216 204.916 243.782 205.029 243.401 205.254C243.02 205.471 242.716 205.778 242.491 206.177C242.266 206.576 242.153 207.044 242.153 207.581C242.153 208.11 242.266 208.578 242.491 208.985C242.716 209.384 243.02 209.696 243.401 209.921C243.782 210.138 244.211 210.246 244.688 210.246ZM252.878 211.065C252.297 211.065 251.79 210.957 251.357 210.74C250.923 210.523 250.585 210.198 250.343 209.765C250.109 209.332 249.992 208.79 249.992 208.14V204.175H250.915V208.036C250.915 208.764 251.092 209.314 251.448 209.687C251.812 210.051 252.319 210.233 252.969 210.233C253.445 210.233 253.857 210.138 254.204 209.947C254.559 209.748 254.828 209.462 255.01 209.089C255.2 208.716 255.296 208.27 255.296 207.75V204.175H256.219V211H255.335V209.128L255.478 209.466C255.261 209.969 254.923 210.363 254.464 210.649C254.013 210.926 253.484 211.065 252.878 211.065ZM258.791 211V204.175H259.675V206.034L259.584 205.709C259.775 205.189 260.095 204.795 260.546 204.526C260.997 204.249 261.556 204.11 262.223 204.11V205.007C262.188 205.007 262.154 205.007 262.119 205.007C262.084 204.998 262.05 204.994 262.015 204.994C261.296 204.994 260.732 205.215 260.325 205.657C259.918 206.09 259.714 206.71 259.714 207.516V211H258.791ZM269.244 211.065C268.681 211.065 268.148 210.987 267.645 210.831C267.142 210.666 266.748 210.463 266.462 210.22L266.878 209.492C267.155 209.7 267.511 209.882 267.944 210.038C268.377 210.185 268.832 210.259 269.309 210.259C269.959 210.259 270.427 210.159 270.713 209.96C270.999 209.752 271.142 209.479 271.142 209.141C271.142 208.89 271.06 208.695 270.895 208.556C270.739 208.409 270.531 208.3 270.271 208.231C270.011 208.153 269.721 208.088 269.4 208.036C269.079 207.984 268.759 207.923 268.438 207.854C268.126 207.785 267.84 207.685 267.58 207.555C267.32 207.416 267.108 207.23 266.943 206.996C266.787 206.762 266.709 206.45 266.709 206.06C266.709 205.687 266.813 205.354 267.021 205.059C267.229 204.764 267.532 204.535 267.931 204.37C268.338 204.197 268.832 204.11 269.413 204.11C269.855 204.11 270.297 204.171 270.739 204.292C271.181 204.405 271.545 204.556 271.831 204.747L271.428 205.488C271.125 205.28 270.8 205.133 270.453 205.046C270.106 204.951 269.76 204.903 269.413 204.903C268.798 204.903 268.343 205.011 268.048 205.228C267.762 205.436 267.619 205.705 267.619 206.034C267.619 206.294 267.697 206.498 267.853 206.645C268.018 206.792 268.23 206.909 268.49 206.996C268.759 207.074 269.049 207.139 269.361 207.191C269.682 207.243 269.998 207.308 270.31 207.386C270.631 207.455 270.921 207.555 271.181 207.685C271.45 207.806 271.662 207.984 271.818 208.218C271.983 208.443 272.065 208.742 272.065 209.115C272.065 209.514 271.952 209.86 271.727 210.155C271.51 210.441 271.19 210.666 270.765 210.831C270.349 210.987 269.842 211.065 269.244 211.065ZM278.036 211V209.492L277.997 209.245V206.723C277.997 206.142 277.832 205.696 277.503 205.384C277.182 205.072 276.701 204.916 276.06 204.916C275.618 204.916 275.197 204.99 274.799 205.137C274.4 205.284 274.062 205.479 273.785 205.722L273.369 205.033C273.715 204.738 274.131 204.513 274.617 204.357C275.102 204.192 275.613 204.11 276.151 204.11C277.035 204.11 277.715 204.331 278.192 204.773C278.677 205.206 278.92 205.869 278.92 206.762V211H278.036ZM275.683 211.065C275.171 211.065 274.725 210.983 274.344 210.818C273.971 210.645 273.685 210.411 273.486 210.116C273.286 209.813 273.187 209.466 273.187 209.076C273.187 208.721 273.269 208.4 273.434 208.114C273.607 207.819 273.884 207.585 274.266 207.412C274.656 207.23 275.176 207.139 275.826 207.139H278.179V207.828H275.852C275.193 207.828 274.734 207.945 274.474 208.179C274.222 208.413 274.097 208.703 274.097 209.05C274.097 209.44 274.248 209.752 274.552 209.986C274.855 210.22 275.28 210.337 275.826 210.337C276.346 210.337 276.792 210.22 277.165 209.986C277.546 209.743 277.823 209.397 277.997 208.946L278.205 209.583C278.031 210.034 277.728 210.393 277.295 210.662C276.87 210.931 276.333 211.065 275.683 211.065ZM281.427 211V201.354H282.35V211H281.427ZM287.817 211.065C287.106 211.065 286.482 210.918 285.945 210.623C285.408 210.32 284.987 209.908 284.684 209.388C284.381 208.859 284.229 208.257 284.229 207.581C284.229 206.905 284.372 206.307 284.658 205.787C284.953 205.267 285.351 204.86 285.854 204.565C286.365 204.262 286.937 204.11 287.57 204.11C288.211 204.11 288.779 204.257 289.273 204.552C289.776 204.838 290.17 205.245 290.456 205.774C290.742 206.294 290.885 206.896 290.885 207.581C290.885 207.624 290.881 207.672 290.872 207.724C290.872 207.767 290.872 207.815 290.872 207.867H284.931V207.178H290.378L290.014 207.451C290.014 206.957 289.906 206.519 289.689 206.138C289.481 205.748 289.195 205.445 288.831 205.228C288.467 205.011 288.047 204.903 287.57 204.903C287.102 204.903 286.682 205.011 286.309 205.228C285.936 205.445 285.646 205.748 285.438 206.138C285.23 206.528 285.126 206.974 285.126 207.477V207.62C285.126 208.14 285.239 208.599 285.464 208.998C285.698 209.388 286.019 209.696 286.426 209.921C286.842 210.138 287.314 210.246 287.843 210.246C288.259 210.246 288.645 210.172 289 210.025C289.364 209.878 289.676 209.652 289.936 209.349L290.456 209.947C290.153 210.311 289.771 210.588 289.312 210.779C288.861 210.97 288.363 211.065 287.817 211.065ZM294.597 211.065C294.033 211.065 293.5 210.987 292.998 210.831C292.495 210.666 292.101 210.463 291.815 210.22L292.231 209.492C292.508 209.7 292.863 209.882 293.297 210.038C293.73 210.185 294.185 210.259 294.662 210.259C295.312 210.259 295.78 210.159 296.066 209.96C296.352 209.752 296.495 209.479 296.495 209.141C296.495 208.89 296.412 208.695 296.248 208.556C296.092 208.409 295.884 208.3 295.624 208.231C295.364 208.153 295.073 208.088 294.753 208.036C294.432 207.984 294.111 207.923 293.791 207.854C293.479 207.785 293.193 207.685 292.933 207.555C292.673 207.416 292.46 207.23 292.296 206.996C292.14 206.762 292.062 206.45 292.062 206.06C292.062 205.687 292.166 205.354 292.374 205.059C292.582 204.764 292.885 204.535 293.284 204.37C293.691 204.197 294.185 204.11 294.766 204.11C295.208 204.11 295.65 204.171 296.092 204.292C296.534 204.405 296.898 204.556 297.184 204.747L296.781 205.488C296.477 205.28 296.152 205.133 295.806 205.046C295.459 204.951 295.112 204.903 294.766 204.903C294.15 204.903 293.695 205.011 293.401 205.228C293.115 205.436 292.972 205.705 292.972 206.034C292.972 206.294 293.05 206.498 293.206 206.645C293.37 206.792 293.583 206.909 293.843 206.996C294.111 207.074 294.402 207.139 294.714 207.191C295.034 207.243 295.351 207.308 295.663 207.386C295.983 207.455 296.274 207.555 296.534 207.685C296.802 207.806 297.015 207.984 297.171 208.218C297.335 208.443 297.418 208.742 297.418 209.115C297.418 209.514 297.305 209.86 297.08 210.155C296.863 210.441 296.542 210.666 296.118 210.831C295.702 210.987 295.195 211.065 294.597 211.065ZM86.443 227V219.317C86.443 218.71 86.6207 218.221 86.976 217.848C87.3313 217.475 87.8427 217.289 88.51 217.289C88.77 217.289 89.0213 217.324 89.264 217.393C89.5067 217.462 89.7103 217.571 89.875 217.718L89.563 218.407C89.433 218.294 89.2813 218.212 89.108 218.16C88.9347 218.099 88.7483 218.069 88.549 218.069C88.159 218.069 87.86 218.177 87.652 218.394C87.444 218.611 87.34 218.931 87.34 219.356V220.396L87.366 220.825V227H86.443ZM85.221 220.942V220.175H89.446V220.942H85.221ZM93.5133 227.065C92.9326 227.065 92.4256 226.957 91.9923 226.74C91.5589 226.523 91.2209 226.198 90.9783 225.765C90.7443 225.332 90.6273 224.79 90.6273 224.14V220.175H91.5503V224.036C91.5503 224.764 91.7279 225.314 92.0833 225.687C92.4473 226.051 92.9543 226.233 93.6043 226.233C94.0809 226.233 94.4926 226.138 94.8393 225.947C95.1946 225.748 95.4633 225.462 95.6453 225.089C95.8359 224.716 95.9313 224.27 95.9313 223.75V220.175H96.8543V227H95.9703V225.128L96.1133 225.466C95.8966 225.969 95.5586 226.363 95.0993 226.649C94.6486 226.926 94.1199 227.065 93.5133 227.065ZM102.911 220.11C103.465 220.11 103.951 220.218 104.367 220.435C104.791 220.643 105.121 220.964 105.355 221.397C105.597 221.83 105.719 222.376 105.719 223.035V227H104.796V223.126C104.796 222.407 104.614 221.865 104.25 221.501C103.894 221.128 103.392 220.942 102.742 220.942C102.256 220.942 101.832 221.042 101.468 221.241C101.112 221.432 100.835 221.713 100.636 222.086C100.445 222.45 100.35 222.892 100.35 223.412V227H99.4266V220.175H100.311V222.047L100.168 221.696C100.384 221.202 100.731 220.816 101.208 220.539C101.684 220.253 102.252 220.11 102.911 220.11ZM111.696 220.11C112.25 220.11 112.736 220.218 113.152 220.435C113.576 220.643 113.906 220.964 114.14 221.397C114.382 221.83 114.504 222.376 114.504 223.035V227H113.581V223.126C113.581 222.407 113.399 221.865 113.035 221.501C112.679 221.128 112.177 220.942 111.527 220.942C111.041 220.942 110.617 221.042 110.253 221.241C109.897 221.432 109.62 221.713 109.421 222.086C109.23 222.45 109.135 222.892 109.135 223.412V227H108.212V220.175H109.096V222.047L108.953 221.696C109.169 221.202 109.516 220.816 109.993 220.539C110.469 220.253 111.037 220.11 111.696 220.11ZM119.896 227.065C119.185 227.065 118.561 226.918 118.024 226.623C117.487 226.32 117.066 225.908 116.763 225.388C116.46 224.859 116.308 224.257 116.308 223.581C116.308 222.905 116.451 222.307 116.737 221.787C117.032 221.267 117.43 220.86 117.933 220.565C118.444 220.262 119.016 220.11 119.649 220.11C120.29 220.11 120.858 220.257 121.352 220.552C121.855 220.838 122.249 221.245 122.535 221.774C122.821 222.294 122.964 222.896 122.964 223.581C122.964 223.624 122.96 223.672 122.951 223.724C122.951 223.767 122.951 223.815 122.951 223.867H117.01V223.178H122.457L122.093 223.451C122.093 222.957 121.985 222.519 121.768 222.138C121.56 221.748 121.274 221.445 120.91 221.228C120.546 221.011 120.126 220.903 119.649 220.903C119.181 220.903 118.761 221.011 118.388 221.228C118.015 221.445 117.725 221.748 117.517 222.138C117.309 222.528 117.205 222.974 117.205 223.477V223.62C117.205 224.14 117.318 224.599 117.543 224.998C117.777 225.388 118.098 225.696 118.505 225.921C118.921 226.138 119.393 226.246 119.922 226.246C120.338 226.246 120.724 226.172 121.079 226.025C121.443 225.878 121.755 225.652 122.015 225.349L122.535 225.947C122.232 226.311 121.85 226.588 121.391 226.779C120.94 226.97 120.442 227.065 119.896 227.065ZM124.843 227V217.354H125.766V227H124.843ZM127.775 228.898L128.347 226.493L128.451 227.052C128.252 227.052 128.083 226.987 127.944 226.857C127.814 226.727 127.749 226.558 127.749 226.35C127.749 226.142 127.814 225.973 127.944 225.843C128.083 225.713 128.247 225.648 128.438 225.648C128.637 225.648 128.798 225.717 128.919 225.856C129.049 225.995 129.114 226.159 129.114 226.35C129.114 226.419 129.11 226.489 129.101 226.558C129.092 226.627 129.075 226.705 129.049 226.792C129.023 226.879 128.988 226.983 128.945 227.104L128.399 228.898H127.775ZM136.649 227.065C136.008 227.065 135.514 226.892 135.167 226.545C134.82 226.198 134.647 225.709 134.647 225.076V218.667H135.57V225.024C135.57 225.423 135.67 225.73 135.869 225.947C136.077 226.164 136.372 226.272 136.753 226.272C137.16 226.272 137.498 226.155 137.767 225.921L138.092 226.584C137.91 226.749 137.689 226.87 137.429 226.948C137.178 227.026 136.918 227.065 136.649 227.065ZM133.425 220.942V220.175H137.65V220.942H133.425ZM142.43 227.065C141.719 227.065 141.095 226.918 140.558 226.623C140.021 226.32 139.6 225.908 139.297 225.388C138.994 224.859 138.842 224.257 138.842 223.581C138.842 222.905 138.985 222.307 139.271 221.787C139.566 221.267 139.964 220.86 140.467 220.565C140.978 220.262 141.55 220.11 142.183 220.11C142.824 220.11 143.392 220.257 143.886 220.552C144.389 220.838 144.783 221.245 145.069 221.774C145.355 222.294 145.498 222.896 145.498 223.581C145.498 223.624 145.494 223.672 145.485 223.724C145.485 223.767 145.485 223.815 145.485 223.867H139.544V223.178H144.991L144.627 223.451C144.627 222.957 144.519 222.519 144.302 222.138C144.094 221.748 143.808 221.445 143.444 221.228C143.08 221.011 142.66 220.903 142.183 220.903C141.715 220.903 141.295 221.011 140.922 221.228C140.549 221.445 140.259 221.748 140.051 222.138C139.843 222.528 139.739 222.974 139.739 223.477V223.62C139.739 224.14 139.852 224.599 140.077 224.998C140.311 225.388 140.632 225.696 141.039 225.921C141.455 226.138 141.927 226.246 142.456 226.246C142.872 226.246 143.258 226.172 143.613 226.025C143.977 225.878 144.289 225.652 144.549 225.349L145.069 225.947C144.766 226.311 144.384 226.588 143.925 226.779C143.474 226.97 142.976 227.065 142.43 227.065ZM151.463 227V225.492L151.424 225.245V222.723C151.424 222.142 151.26 221.696 150.93 221.384C150.61 221.072 150.129 220.916 149.487 220.916C149.045 220.916 148.625 220.99 148.226 221.137C147.828 221.284 147.49 221.479 147.212 221.722L146.796 221.033C147.143 220.738 147.559 220.513 148.044 220.357C148.53 220.192 149.041 220.11 149.578 220.11C150.462 220.11 151.143 220.331 151.619 220.773C152.105 221.206 152.347 221.869 152.347 222.762V227H151.463ZM149.11 227.065C148.599 227.065 148.153 226.983 147.771 226.818C147.399 226.645 147.113 226.411 146.913 226.116C146.714 225.813 146.614 225.466 146.614 225.076C146.614 224.721 146.697 224.4 146.861 224.114C147.035 223.819 147.312 223.585 147.693 223.412C148.083 223.23 148.603 223.139 149.253 223.139H151.606V223.828H149.279C148.621 223.828 148.161 223.945 147.901 224.179C147.65 224.413 147.524 224.703 147.524 225.05C147.524 225.44 147.676 225.752 147.979 225.986C148.283 226.22 148.707 226.337 149.253 226.337C149.773 226.337 150.22 226.22 150.592 225.986C150.974 225.743 151.251 225.397 151.424 224.946L151.632 225.583C151.459 226.034 151.156 226.393 150.722 226.662C150.298 226.931 149.76 227.065 149.11 227.065ZM163.382 220.11C163.937 220.11 164.418 220.218 164.825 220.435C165.241 220.643 165.562 220.964 165.787 221.397C166.021 221.83 166.138 222.376 166.138 223.035V227H165.215V223.126C165.215 222.407 165.042 221.865 164.695 221.501C164.357 221.128 163.876 220.942 163.252 220.942C162.784 220.942 162.377 221.042 162.03 221.241C161.692 221.432 161.428 221.713 161.237 222.086C161.055 222.45 160.964 222.892 160.964 223.412V227H160.041V223.126C160.041 222.407 159.868 221.865 159.521 221.501C159.175 221.128 158.689 220.942 158.065 220.942C157.606 220.942 157.203 221.042 156.856 221.241C156.51 221.432 156.241 221.713 156.05 222.086C155.868 222.45 155.777 222.892 155.777 223.412V227H154.854V220.175H155.738V222.021L155.595 221.696C155.803 221.202 156.137 220.816 156.596 220.539C157.064 220.253 157.615 220.11 158.247 220.11C158.915 220.11 159.482 220.279 159.95 220.617C160.418 220.946 160.722 221.445 160.86 222.112L160.496 221.969C160.696 221.414 161.047 220.968 161.549 220.63C162.061 220.283 162.672 220.11 163.382 220.11ZM175.567 227.065C174.978 227.065 174.445 226.931 173.968 226.662C173.491 226.385 173.11 225.99 172.824 225.479C172.547 224.959 172.408 224.326 172.408 223.581C172.408 222.836 172.547 222.207 172.824 221.696C173.101 221.176 173.478 220.782 173.955 220.513C174.432 220.244 174.969 220.11 175.567 220.11C176.217 220.11 176.798 220.257 177.309 220.552C177.829 220.838 178.236 221.245 178.531 221.774C178.826 222.294 178.973 222.896 178.973 223.581C178.973 224.274 178.826 224.881 178.531 225.401C178.236 225.921 177.829 226.328 177.309 226.623C176.798 226.918 176.217 227.065 175.567 227.065ZM172.044 229.522V220.175H172.928V222.229L172.837 223.594L172.967 224.972V229.522H172.044ZM175.502 226.246C175.987 226.246 176.421 226.138 176.802 225.921C177.183 225.696 177.487 225.384 177.712 224.985C177.937 224.578 178.05 224.11 178.05 223.581C178.05 223.052 177.937 222.589 177.712 222.19C177.487 221.791 177.183 221.479 176.802 221.254C176.421 221.029 175.987 220.916 175.502 220.916C175.017 220.916 174.579 221.029 174.189 221.254C173.808 221.479 173.504 221.791 173.279 222.19C173.062 222.589 172.954 223.052 172.954 223.581C172.954 224.11 173.062 224.578 173.279 224.985C173.504 225.384 173.808 225.696 174.189 225.921C174.579 226.138 175.017 226.246 175.502 226.246ZM183.753 227.065C183.043 227.065 182.419 226.918 181.881 226.623C181.344 226.32 180.924 225.908 180.62 225.388C180.317 224.859 180.165 224.257 180.165 223.581C180.165 222.905 180.308 222.307 180.594 221.787C180.889 221.267 181.288 220.86 181.79 220.565C182.302 220.262 182.874 220.11 183.506 220.11C184.148 220.11 184.715 220.257 185.209 220.552C185.712 220.838 186.106 221.245 186.392 221.774C186.678 222.294 186.821 222.896 186.821 223.581C186.821 223.624 186.817 223.672 186.808 223.724C186.808 223.767 186.808 223.815 186.808 223.867H180.867V223.178H186.314L185.95 223.451C185.95 222.957 185.842 222.519 185.625 222.138C185.417 221.748 185.131 221.445 184.767 221.228C184.403 221.011 183.983 220.903 183.506 220.903C183.038 220.903 182.618 221.011 182.245 221.228C181.873 221.445 181.582 221.748 181.374 222.138C181.166 222.528 181.062 222.974 181.062 223.477V223.62C181.062 224.14 181.175 224.599 181.4 224.998C181.634 225.388 181.955 225.696 182.362 225.921C182.778 226.138 183.251 226.246 183.779 226.246C184.195 226.246 184.581 226.172 184.936 226.025C185.3 225.878 185.612 225.652 185.872 225.349L186.392 225.947C186.089 226.311 185.708 226.588 185.248 226.779C184.798 226.97 184.299 227.065 183.753 227.065ZM188.7 227V220.175H189.584V222.034L189.493 221.709C189.684 221.189 190.004 220.795 190.455 220.526C190.906 220.249 191.465 220.11 192.132 220.11V221.007C192.097 221.007 192.063 221.007 192.028 221.007C191.993 220.998 191.959 220.994 191.924 220.994C191.205 220.994 190.641 221.215 190.234 221.657C189.827 222.09 189.623 222.71 189.623 223.516V227H188.7ZM194.074 227V219.317C194.074 218.71 194.252 218.221 194.607 217.848C194.962 217.475 195.474 217.289 196.141 217.289C196.401 217.289 196.652 217.324 196.895 217.393C197.138 217.462 197.341 217.571 197.506 217.718L197.194 218.407C197.064 218.294 196.912 218.212 196.739 218.16C196.566 218.099 196.379 218.069 196.18 218.069C195.79 218.069 195.491 218.177 195.283 218.394C195.075 218.611 194.971 218.931 194.971 219.356V220.396L194.997 220.825V227H194.074ZM192.852 220.942V220.175H197.077V220.942H192.852ZM200.991 227.065C200.332 227.065 199.739 226.918 199.21 226.623C198.69 226.32 198.278 225.908 197.975 225.388C197.672 224.859 197.52 224.257 197.52 223.581C197.52 222.896 197.672 222.294 197.975 221.774C198.278 221.254 198.69 220.847 199.21 220.552C199.73 220.257 200.324 220.11 200.991 220.11C201.667 220.11 202.265 220.257 202.785 220.552C203.314 220.847 203.725 221.254 204.02 221.774C204.323 222.294 204.475 222.896 204.475 223.581C204.475 224.257 204.323 224.859 204.02 225.388C203.725 225.908 203.314 226.32 202.785 226.623C202.256 226.918 201.658 227.065 200.991 227.065ZM200.991 226.246C201.485 226.246 201.923 226.138 202.304 225.921C202.685 225.696 202.984 225.384 203.201 224.985C203.426 224.578 203.539 224.11 203.539 223.581C203.539 223.044 203.426 222.576 203.201 222.177C202.984 221.778 202.685 221.471 202.304 221.254C201.923 221.029 201.489 220.916 201.004 220.916C200.519 220.916 200.085 221.029 199.704 221.254C199.323 221.471 199.019 221.778 198.794 222.177C198.569 222.576 198.456 223.044 198.456 223.581C198.456 224.11 198.569 224.578 198.794 224.985C199.019 225.384 199.323 225.696 199.704 225.921C200.085 226.138 200.514 226.246 200.991 226.246ZM206.359 227V220.175H207.243V222.034L207.152 221.709C207.343 221.189 207.664 220.795 208.114 220.526C208.565 220.249 209.124 220.11 209.791 220.11V221.007C209.757 221.007 209.722 221.007 209.687 221.007C209.653 220.998 209.618 220.994 209.583 220.994C208.864 220.994 208.301 221.215 207.893 221.657C207.486 222.09 207.282 222.71 207.282 223.516V227H206.359ZM220.003 220.11C220.558 220.11 221.039 220.218 221.446 220.435C221.862 220.643 222.183 220.964 222.408 221.397C222.642 221.83 222.759 222.376 222.759 223.035V227H221.836V223.126C221.836 222.407 221.663 221.865 221.316 221.501C220.978 221.128 220.497 220.942 219.873 220.942C219.405 220.942 218.998 221.042 218.651 221.241C218.313 221.432 218.049 221.713 217.858 222.086C217.676 222.45 217.585 222.892 217.585 223.412V227H216.662V223.126C216.662 222.407 216.489 221.865 216.142 221.501C215.796 221.128 215.31 220.942 214.686 220.942C214.227 220.942 213.824 221.042 213.477 221.241C213.131 221.432 212.862 221.713 212.671 222.086C212.489 222.45 212.398 222.892 212.398 223.412V227H211.475V220.175H212.359V222.021L212.216 221.696C212.424 221.202 212.758 220.816 213.217 220.539C213.685 220.253 214.236 220.11 214.868 220.11C215.536 220.11 216.103 220.279 216.571 220.617C217.039 220.946 217.343 221.445 217.481 222.112L217.117 221.969C217.317 221.414 217.668 220.968 218.17 220.63C218.682 220.283 219.293 220.11 220.003 220.11ZM229.54 227V225.492L229.501 225.245V222.723C229.501 222.142 229.336 221.696 229.007 221.384C228.686 221.072 228.205 220.916 227.564 220.916C227.122 220.916 226.701 220.99 226.303 221.137C225.904 221.284 225.566 221.479 225.289 221.722L224.873 221.033C225.219 220.738 225.635 220.513 226.121 220.357C226.606 220.192 227.117 220.11 227.655 220.11C228.539 220.11 229.219 220.331 229.696 220.773C230.181 221.206 230.424 221.869 230.424 222.762V227H229.54ZM227.187 227.065C226.675 227.065 226.229 226.983 225.848 226.818C225.475 226.645 225.189 226.411 224.99 226.116C224.79 225.813 224.691 225.466 224.691 225.076C224.691 224.721 224.773 224.4 224.938 224.114C225.111 223.819 225.388 223.585 225.77 223.412C226.16 223.23 226.68 223.139 227.33 223.139H229.683V223.828H227.356C226.697 223.828 226.238 223.945 225.978 224.179C225.726 224.413 225.601 224.703 225.601 225.05C225.601 225.44 225.752 225.752 226.056 225.986C226.359 226.22 226.784 226.337 227.33 226.337C227.85 226.337 228.296 226.22 228.669 225.986C229.05 225.743 229.327 225.397 229.501 224.946L229.709 225.583C229.535 226.034 229.232 226.393 228.799 226.662C228.374 226.931 227.837 227.065 227.187 227.065ZM236.415 220.11C236.969 220.11 237.455 220.218 237.871 220.435C238.295 220.643 238.625 220.964 238.859 221.397C239.101 221.83 239.223 222.376 239.223 223.035V227H238.3V223.126C238.3 222.407 238.118 221.865 237.754 221.501C237.398 221.128 236.896 220.942 236.246 220.942C235.76 220.942 235.336 221.042 234.972 221.241C234.616 221.432 234.339 221.713 234.14 222.086C233.949 222.45 233.854 222.892 233.854 223.412V227H232.931V220.175H233.815V222.047L233.672 221.696C233.888 221.202 234.235 220.816 234.712 220.539C235.188 220.253 235.756 220.11 236.415 220.11ZM244.55 227.065C243.874 227.065 243.267 226.918 242.73 226.623C242.201 226.32 241.785 225.908 241.482 225.388C241.178 224.859 241.027 224.257 241.027 223.581C241.027 222.896 241.178 222.294 241.482 221.774C241.785 221.254 242.201 220.847 242.73 220.552C243.267 220.257 243.874 220.11 244.55 220.11C245.13 220.11 245.655 220.223 246.123 220.448C246.591 220.673 246.959 221.011 247.228 221.462L246.539 221.93C246.305 221.583 246.014 221.328 245.668 221.163C245.321 220.998 244.944 220.916 244.537 220.916C244.051 220.916 243.614 221.029 243.224 221.254C242.834 221.471 242.526 221.778 242.301 222.177C242.075 222.576 241.963 223.044 241.963 223.581C241.963 224.118 242.075 224.586 242.301 224.985C242.526 225.384 242.834 225.696 243.224 225.921C243.614 226.138 244.051 226.246 244.537 226.246C244.944 226.246 245.321 226.164 245.668 225.999C246.014 225.834 246.305 225.583 246.539 225.245L247.228 225.713C246.959 226.155 246.591 226.493 246.123 226.727C245.655 226.952 245.13 227.065 244.55 227.065ZM251.826 227.065C251.115 227.065 250.491 226.918 249.954 226.623C249.416 226.32 248.996 225.908 248.693 225.388C248.389 224.859 248.238 224.257 248.238 223.581C248.238 222.905 248.381 222.307 248.667 221.787C248.961 221.267 249.36 220.86 249.863 220.565C250.374 220.262 250.946 220.11 251.579 220.11C252.22 220.11 252.788 220.257 253.282 220.552C253.784 220.838 254.179 221.245 254.465 221.774C254.751 222.294 254.894 222.896 254.894 223.581C254.894 223.624 254.889 223.672 254.881 223.724C254.881 223.767 254.881 223.815 254.881 223.867H248.94V223.178H254.387L254.023 223.451C254.023 222.957 253.914 222.519 253.698 222.138C253.49 221.748 253.204 221.445 252.84 221.228C252.476 221.011 252.055 220.903 251.579 220.903C251.111 220.903 250.69 221.011 250.318 221.228C249.945 221.445 249.655 221.748 249.447 222.138C249.239 222.528 249.135 222.974 249.135 223.477V223.62C249.135 224.14 249.247 224.599 249.473 224.998C249.707 225.388 250.027 225.696 250.435 225.921C250.851 226.138 251.323 226.246 251.852 226.246C252.268 226.246 252.653 226.172 253.009 226.025C253.373 225.878 253.685 225.652 253.945 225.349L254.465 225.947C254.161 226.311 253.78 226.588 253.321 226.779C252.87 226.97 252.372 227.065 251.826 227.065ZM256.213 228.898L256.785 226.493L256.889 227.052C256.69 227.052 256.521 226.987 256.382 226.857C256.252 226.727 256.187 226.558 256.187 226.35C256.187 226.142 256.252 225.973 256.382 225.843C256.521 225.713 256.686 225.648 256.876 225.648C257.076 225.648 257.236 225.717 257.357 225.856C257.487 225.995 257.552 226.159 257.552 226.35C257.552 226.419 257.548 226.489 257.539 226.558C257.531 226.627 257.513 226.705 257.487 226.792C257.461 226.879 257.427 226.983 257.383 227.104L256.837 228.898H256.213ZM267.207 227V225.492L267.168 225.245V222.723C267.168 222.142 267.003 221.696 266.674 221.384C266.353 221.072 265.872 220.916 265.231 220.916C264.789 220.916 264.368 220.99 263.97 221.137C263.571 221.284 263.233 221.479 262.956 221.722L262.54 221.033C262.886 220.738 263.302 220.513 263.788 220.357C264.273 220.192 264.784 220.11 265.322 220.11C266.206 220.11 266.886 220.331 267.363 220.773C267.848 221.206 268.091 221.869 268.091 222.762V227H267.207ZM264.854 227.065C264.342 227.065 263.896 226.983 263.515 226.818C263.142 226.645 262.856 226.411 262.657 226.116C262.457 225.813 262.358 225.466 262.358 225.076C262.358 224.721 262.44 224.4 262.605 224.114C262.778 223.819 263.055 223.585 263.437 223.412C263.827 223.23 264.347 223.139 264.997 223.139H267.35V223.828H265.023C264.364 223.828 263.905 223.945 263.645 224.179C263.393 224.413 263.268 224.703 263.268 225.05C263.268 225.44 263.419 225.752 263.723 225.986C264.026 226.22 264.451 226.337 264.997 226.337C265.517 226.337 265.963 226.22 266.336 225.986C266.717 225.743 266.994 225.397 267.168 224.946L267.376 225.583C267.202 226.034 266.899 226.393 266.466 226.662C266.041 226.931 265.504 227.065 264.854 227.065ZM274.082 220.11C274.636 220.11 275.122 220.218 275.538 220.435C275.962 220.643 276.292 220.964 276.526 221.397C276.768 221.83 276.89 222.376 276.89 223.035V227H275.967V223.126C275.967 222.407 275.785 221.865 275.421 221.501C275.065 221.128 274.563 220.942 273.913 220.942C273.427 220.942 273.003 221.042 272.639 221.241C272.283 221.432 272.006 221.713 271.807 222.086C271.616 222.45 271.521 222.892 271.521 223.412V227H270.598V220.175H271.482V222.047L271.339 221.696C271.555 221.202 271.902 220.816 272.379 220.539C272.855 220.253 273.423 220.11 274.082 220.11ZM282.1 227.065C281.45 227.065 280.865 226.918 280.345 226.623C279.833 226.328 279.43 225.921 279.136 225.401C278.841 224.872 278.694 224.266 278.694 223.581C278.694 222.888 278.841 222.281 279.136 221.761C279.43 221.241 279.833 220.838 280.345 220.552C280.865 220.257 281.45 220.11 282.1 220.11C282.698 220.11 283.231 220.244 283.699 220.513C284.175 220.782 284.552 221.176 284.83 221.696C285.116 222.207 285.259 222.836 285.259 223.581C285.259 224.318 285.12 224.946 284.843 225.466C284.565 225.986 284.188 226.385 283.712 226.662C283.244 226.931 282.706 227.065 282.1 227.065ZM282.165 226.246C282.65 226.246 283.083 226.138 283.465 225.921C283.855 225.696 284.158 225.384 284.375 224.985C284.6 224.578 284.713 224.11 284.713 223.581C284.713 223.044 284.6 222.576 284.375 222.177C284.158 221.778 283.855 221.471 283.465 221.254C283.083 221.029 282.65 220.916 282.165 220.916C281.688 220.916 281.259 221.029 280.878 221.254C280.496 221.471 280.193 221.778 279.968 222.177C279.742 222.576 279.63 223.044 279.63 223.581C279.63 224.11 279.742 224.578 279.968 224.985C280.193 225.384 280.496 225.696 280.878 225.921C281.259 226.138 281.688 226.246 282.165 226.246ZM284.739 227V224.946L284.83 223.568L284.7 222.19V217.354H285.623V227H284.739ZM89.121 243.065C88.445 243.065 87.8383 242.918 87.301 242.623C86.7723 242.32 86.3563 241.908 86.053 241.388C85.7497 240.859 85.598 240.257 85.598 239.581C85.598 238.896 85.7497 238.294 86.053 237.774C86.3563 237.254 86.7723 236.847 87.301 236.552C87.8383 236.257 88.445 236.11 89.121 236.11C89.7017 236.11 90.226 236.223 90.694 236.448C91.162 236.673 91.5303 237.011 91.799 237.462L91.11 237.93C90.876 237.583 90.5857 237.328 90.239 237.163C89.8923 236.998 89.5153 236.916 89.108 236.916C88.6227 236.916 88.185 237.029 87.795 237.254C87.405 237.471 87.0973 237.778 86.872 238.177C86.6467 238.576 86.534 239.044 86.534 239.581C86.534 240.118 86.6467 240.586 86.872 240.985C87.0973 241.384 87.405 241.696 87.795 241.921C88.185 242.138 88.6227 242.246 89.108 242.246C89.5153 242.246 89.8923 242.164 90.239 241.999C90.5857 241.834 90.876 241.583 91.11 241.245L91.799 241.713C91.5303 242.155 91.162 242.493 90.694 242.727C90.226 242.952 89.7017 243.065 89.121 243.065ZM96.4332 243.065C95.8525 243.065 95.3455 242.957 94.9122 242.74C94.4789 242.523 94.1409 242.198 93.8982 241.765C93.6642 241.332 93.5472 240.79 93.5472 240.14V236.175H94.4702V240.036C94.4702 240.764 94.6479 241.314 95.0032 241.687C95.3672 242.051 95.8742 242.233 96.5242 242.233C97.0009 242.233 97.4125 242.138 97.7592 241.947C98.1145 241.748 98.3832 241.462 98.5652 241.089C98.7559 240.716 98.8512 240.27 98.8512 239.75V236.175H99.7742V243H98.8902V241.128L99.0332 241.466C98.8165 241.969 98.4785 242.363 98.0192 242.649C97.5685 242.926 97.0399 243.065 96.4332 243.065ZM104.18 243.065C103.616 243.065 103.083 242.987 102.581 242.831C102.078 242.666 101.684 242.463 101.398 242.22L101.814 241.492C102.091 241.7 102.446 241.882 102.88 242.038C103.313 242.185 103.768 242.259 104.245 242.259C104.895 242.259 105.363 242.159 105.649 241.96C105.935 241.752 106.078 241.479 106.078 241.141C106.078 240.89 105.995 240.695 105.831 240.556C105.675 240.409 105.467 240.3 105.207 240.231C104.947 240.153 104.656 240.088 104.336 240.036C104.015 239.984 103.694 239.923 103.374 239.854C103.062 239.785 102.776 239.685 102.516 239.555C102.256 239.416 102.043 239.23 101.879 238.996C101.723 238.762 101.645 238.45 101.645 238.06C101.645 237.687 101.749 237.354 101.957 237.059C102.165 236.764 102.468 236.535 102.867 236.37C103.274 236.197 103.768 236.11 104.349 236.11C104.791 236.11 105.233 236.171 105.675 236.292C106.117 236.405 106.481 236.556 106.767 236.747L106.364 237.488C106.06 237.28 105.735 237.133 105.389 237.046C105.042 236.951 104.695 236.903 104.349 236.903C103.733 236.903 103.278 237.011 102.984 237.228C102.698 237.436 102.555 237.705 102.555 238.034C102.555 238.294 102.633 238.498 102.789 238.645C102.953 238.792 103.166 238.909 103.426 238.996C103.694 239.074 103.985 239.139 104.297 239.191C104.617 239.243 104.934 239.308 105.246 239.386C105.566 239.455 105.857 239.555 106.117 239.685C106.385 239.806 106.598 239.984 106.754 240.218C106.918 240.443 107.001 240.742 107.001 241.115C107.001 241.514 106.888 241.86 106.663 242.155C106.446 242.441 106.125 242.666 105.701 242.831C105.285 242.987 104.778 243.065 104.18 243.065ZM110.852 243.065C110.211 243.065 109.717 242.892 109.37 242.545C109.024 242.198 108.85 241.709 108.85 241.076V234.667H109.773V241.024C109.773 241.423 109.873 241.73 110.072 241.947C110.28 242.164 110.575 242.272 110.956 242.272C111.364 242.272 111.702 242.155 111.97 241.921L112.295 242.584C112.113 242.749 111.892 242.87 111.632 242.948C111.381 243.026 111.121 243.065 110.852 243.065ZM107.628 236.942V236.175H111.853V236.942H107.628ZM116.516 243.065C115.858 243.065 115.264 242.918 114.735 242.623C114.215 242.32 113.804 241.908 113.5 241.388C113.197 240.859 113.045 240.257 113.045 239.581C113.045 238.896 113.197 238.294 113.5 237.774C113.804 237.254 114.215 236.847 114.735 236.552C115.255 236.257 115.849 236.11 116.516 236.11C117.192 236.11 117.79 236.257 118.31 236.552C118.839 236.847 119.251 237.254 119.545 237.774C119.849 238.294 120 238.896 120 239.581C120 240.257 119.849 240.859 119.545 241.388C119.251 241.908 118.839 242.32 118.31 242.623C117.782 242.918 117.184 243.065 116.516 243.065ZM116.516 242.246C117.01 242.246 117.448 242.138 117.829 241.921C118.211 241.696 118.51 241.384 118.726 240.985C118.952 240.578 119.064 240.11 119.064 239.581C119.064 239.044 118.952 238.576 118.726 238.177C118.51 237.778 118.211 237.471 117.829 237.254C117.448 237.029 117.015 236.916 116.529 236.916C116.044 236.916 115.611 237.029 115.229 237.254C114.848 237.471 114.545 237.778 114.319 238.177C114.094 238.576 113.981 239.044 113.981 239.581C113.981 240.11 114.094 240.578 114.319 240.985C114.545 241.384 114.848 241.696 115.229 241.921C115.611 242.138 116.04 242.246 116.516 242.246ZM130.413 236.11C130.967 236.11 131.448 236.218 131.856 236.435C132.272 236.643 132.592 236.964 132.818 237.397C133.052 237.83 133.169 238.376 133.169 239.035V243H132.246V239.126C132.246 238.407 132.072 237.865 131.726 237.501C131.388 237.128 130.907 236.942 130.283 236.942C129.815 236.942 129.407 237.042 129.061 237.241C128.723 237.432 128.458 237.713 128.268 238.086C128.086 238.45 127.995 238.892 127.995 239.412V243H127.072V239.126C127.072 238.407 126.898 237.865 126.552 237.501C126.205 237.128 125.72 236.942 125.096 236.942C124.636 236.942 124.233 237.042 123.887 237.241C123.54 237.432 123.271 237.713 123.081 238.086C122.899 238.45 122.808 238.892 122.808 239.412V243H121.885V236.175H122.769V238.021L122.626 237.696C122.834 237.202 123.167 236.816 123.627 236.539C124.095 236.253 124.645 236.11 125.278 236.11C125.945 236.11 126.513 236.279 126.981 236.617C127.449 236.946 127.752 237.445 127.891 238.112L127.527 237.969C127.726 237.414 128.077 236.968 128.58 236.63C129.091 236.283 129.702 236.11 130.413 236.11ZM138.571 243.065C137.86 243.065 137.236 242.918 136.699 242.623C136.161 242.32 135.741 241.908 135.438 241.388C135.134 240.859 134.983 240.257 134.983 239.581C134.983 238.905 135.126 238.307 135.412 237.787C135.706 237.267 136.105 236.86 136.608 236.565C137.119 236.262 137.691 236.11 138.324 236.11C138.965 236.11 139.533 236.257 140.027 236.552C140.529 236.838 140.924 237.245 141.21 237.774C141.496 238.294 141.639 238.896 141.639 239.581C141.639 239.624 141.634 239.672 141.626 239.724C141.626 239.767 141.626 239.815 141.626 239.867H135.685V239.178H141.132L140.768 239.451C140.768 238.957 140.659 238.519 140.443 238.138C140.235 237.748 139.949 237.445 139.585 237.228C139.221 237.011 138.8 236.903 138.324 236.903C137.856 236.903 137.435 237.011 137.063 237.228C136.69 237.445 136.4 237.748 136.192 238.138C135.984 238.528 135.88 238.974 135.88 239.477V239.62C135.88 240.14 135.992 240.599 136.218 240.998C136.452 241.388 136.772 241.696 137.18 241.921C137.596 242.138 138.068 242.246 138.597 242.246C139.013 242.246 139.398 242.172 139.754 242.025C140.118 241.878 140.43 241.652 140.69 241.349L141.21 241.947C140.906 242.311 140.525 242.588 140.066 242.779C139.615 242.97 139.117 243.065 138.571 243.065ZM143.517 243V236.175H144.401V238.034L144.31 237.709C144.501 237.189 144.822 236.795 145.272 236.526C145.723 236.249 146.282 236.11 146.949 236.11V237.007C146.915 237.007 146.88 237.007 146.845 237.007C146.811 236.998 146.776 236.994 146.741 236.994C146.022 236.994 145.459 237.215 145.051 237.657C144.644 238.09 144.44 238.71 144.44 239.516V243H143.517ZM151.124 245.587C150.846 245.587 150.582 245.548 150.331 245.47C150.071 245.401 149.854 245.292 149.681 245.145L150.006 244.443C150.283 244.677 150.638 244.794 151.072 244.794C151.436 244.794 151.713 244.686 151.904 244.469C152.103 244.252 152.203 243.932 152.203 243.507V236.175H153.126V243.507C153.126 244.14 152.952 244.642 152.606 245.015C152.268 245.396 151.774 245.587 151.124 245.587ZM152.671 234.667C152.48 234.667 152.32 234.602 152.19 234.472C152.06 234.342 151.995 234.186 151.995 234.004C151.995 233.822 152.06 233.67 152.19 233.549C152.32 233.419 152.48 233.354 152.671 233.354C152.861 233.354 153.022 233.415 153.152 233.536C153.282 233.657 153.347 233.809 153.347 233.991C153.347 234.182 153.282 234.342 153.152 234.472C153.03 234.602 152.87 234.667 152.671 234.667ZM158.487 243.065C157.828 243.065 157.235 242.918 156.706 242.623C156.186 242.32 155.774 241.908 155.471 241.388C155.168 240.859 155.016 240.257 155.016 239.581C155.016 238.896 155.168 238.294 155.471 237.774C155.774 237.254 156.186 236.847 156.706 236.552C157.226 236.257 157.82 236.11 158.487 236.11C159.163 236.11 159.761 236.257 160.281 236.552C160.81 236.847 161.221 237.254 161.516 237.774C161.819 238.294 161.971 238.896 161.971 239.581C161.971 240.257 161.819 240.859 161.516 241.388C161.221 241.908 160.81 242.32 160.281 242.623C159.752 242.918 159.154 243.065 158.487 243.065ZM158.487 242.246C158.981 242.246 159.419 242.138 159.8 241.921C160.181 241.696 160.48 241.384 160.697 240.985C160.922 240.578 161.035 240.11 161.035 239.581C161.035 239.044 160.922 238.576 160.697 238.177C160.48 237.778 160.181 237.471 159.8 237.254C159.419 237.029 158.985 236.916 158.5 236.916C158.015 236.916 157.581 237.029 157.2 237.254C156.819 237.471 156.515 237.778 156.29 238.177C156.065 238.576 155.952 239.044 155.952 239.581C155.952 240.11 156.065 240.578 156.29 240.985C156.515 241.384 156.819 241.696 157.2 241.921C157.581 242.138 158.01 242.246 158.487 242.246ZM166.676 243.065C166.096 243.065 165.589 242.957 165.155 242.74C164.722 242.523 164.384 242.198 164.141 241.765C163.907 241.332 163.79 240.79 163.79 240.14V236.175H164.713V240.036C164.713 240.764 164.891 241.314 165.246 241.687C165.61 242.051 166.117 242.233 166.767 242.233C167.244 242.233 167.656 242.138 168.002 241.947C168.358 241.748 168.626 241.462 168.808 241.089C168.999 240.716 169.094 240.27 169.094 239.75V236.175H170.017V243H169.133V241.128L169.276 241.466C169.06 241.969 168.722 242.363 168.262 242.649C167.812 242.926 167.283 243.065 166.676 243.065ZM172.59 243V236.175H173.474V238.034L173.383 237.709C173.573 237.189 173.894 236.795 174.345 236.526C174.795 236.249 175.354 236.11 176.022 236.11V237.007C175.987 237.007 175.952 237.007 175.918 237.007C175.883 236.998 175.848 236.994 175.814 236.994C175.094 236.994 174.531 237.215 174.124 237.657C173.716 238.09 173.513 238.71 173.513 239.516V243H172.59ZM181.19 236.11C181.745 236.11 182.23 236.218 182.646 236.435C183.071 236.643 183.4 236.964 183.634 237.397C183.877 237.83 183.998 238.376 183.998 239.035V243H183.075V239.126C183.075 238.407 182.893 237.865 182.529 237.501C182.174 237.128 181.671 236.942 181.021 236.942C180.536 236.942 180.111 237.042 179.747 237.241C179.392 237.432 179.114 237.713 178.915 238.086C178.724 238.45 178.629 238.892 178.629 239.412V243H177.706V236.175H178.59V238.047L178.447 237.696C178.664 237.202 179.01 236.816 179.487 236.539C179.964 236.253 180.531 236.11 181.19 236.11ZM189.39 243.065C188.679 243.065 188.055 242.918 187.518 242.623C186.981 242.32 186.56 241.908 186.257 241.388C185.954 240.859 185.802 240.257 185.802 239.581C185.802 238.905 185.945 238.307 186.231 237.787C186.526 237.267 186.924 236.86 187.427 236.565C187.938 236.262 188.51 236.11 189.143 236.11C189.784 236.11 190.352 236.257 190.846 236.552C191.349 236.838 191.743 237.245 192.029 237.774C192.315 238.294 192.458 238.896 192.458 239.581C192.458 239.624 192.454 239.672 192.445 239.724C192.445 239.767 192.445 239.815 192.445 239.867H186.504V239.178H191.951L191.587 239.451C191.587 238.957 191.479 238.519 191.262 238.138C191.054 237.748 190.768 237.445 190.404 237.228C190.04 237.011 189.62 236.903 189.143 236.903C188.675 236.903 188.255 237.011 187.882 237.228C187.509 237.445 187.219 237.748 187.011 238.138C186.803 238.528 186.699 238.974 186.699 239.477V239.62C186.699 240.14 186.812 240.599 187.037 240.998C187.271 241.388 187.592 241.696 187.999 241.921C188.415 242.138 188.887 242.246 189.416 242.246C189.832 242.246 190.218 242.172 190.573 242.025C190.937 241.878 191.249 241.652 191.509 241.349L192.029 241.947C191.726 242.311 191.344 242.588 190.885 242.779C190.434 242.97 189.936 243.065 189.39 243.065ZM194.262 245.587C193.941 245.587 193.634 245.535 193.339 245.431C193.053 245.327 192.806 245.171 192.598 244.963L193.027 244.274C193.2 244.439 193.387 244.564 193.586 244.651C193.794 244.746 194.024 244.794 194.275 244.794C194.578 244.794 194.838 244.707 195.055 244.534C195.28 244.369 195.493 244.075 195.692 243.65L196.134 242.649L196.238 242.506L199.046 236.175H199.956L196.537 243.819C196.346 244.261 196.134 244.612 195.9 244.872C195.675 245.132 195.428 245.314 195.159 245.418C194.89 245.531 194.591 245.587 194.262 245.587ZM196.082 243.195L192.936 236.175H193.898L196.68 242.441L196.082 243.195ZM203.013 243.065C202.449 243.065 201.916 242.987 201.414 242.831C200.911 242.666 200.517 242.463 200.231 242.22L200.647 241.492C200.924 241.7 201.279 241.882 201.713 242.038C202.146 242.185 202.601 242.259 203.078 242.259C203.728 242.259 204.196 242.159 204.482 241.96C204.768 241.752 204.911 241.479 204.911 241.141C204.911 240.89 204.828 240.695 204.664 240.556C204.508 240.409 204.3 240.3 204.04 240.231C203.78 240.153 203.489 240.088 203.169 240.036C202.848 239.984 202.527 239.923 202.207 239.854C201.895 239.785 201.609 239.685 201.349 239.555C201.089 239.416 200.876 239.23 200.712 238.996C200.556 238.762 200.478 238.45 200.478 238.06C200.478 237.687 200.582 237.354 200.79 237.059C200.998 236.764 201.301 236.535 201.7 236.37C202.107 236.197 202.601 236.11 203.182 236.11C203.624 236.11 204.066 236.171 204.508 236.292C204.95 236.405 205.314 236.556 205.6 236.747L205.197 237.488C204.893 237.28 204.568 237.133 204.222 237.046C203.875 236.951 203.528 236.903 203.182 236.903C202.566 236.903 202.111 237.011 201.817 237.228C201.531 237.436 201.388 237.705 201.388 238.034C201.388 238.294 201.466 238.498 201.622 238.645C201.786 238.792 201.999 238.909 202.259 238.996C202.527 239.074 202.818 239.139 203.13 239.191C203.45 239.243 203.767 239.308 204.079 239.386C204.399 239.455 204.69 239.555 204.95 239.685C205.218 239.806 205.431 239.984 205.587 240.218C205.751 240.443 205.834 240.742 205.834 241.115C205.834 241.514 205.721 241.86 205.496 242.155C205.279 242.441 204.958 242.666 204.534 242.831C204.118 242.987 203.611 243.065 203.013 243.065ZM213.088 243.065C212.446 243.065 211.952 242.892 211.606 242.545C211.259 242.198 211.086 241.709 211.086 241.076V234.667H212.009V241.024C212.009 241.423 212.108 241.73 212.308 241.947C212.516 242.164 212.81 242.272 213.192 242.272C213.599 242.272 213.937 242.155 214.206 241.921L214.531 242.584C214.349 242.749 214.128 242.87 213.868 242.948C213.616 243.026 213.356 243.065 213.088 243.065ZM209.864 236.942V236.175H214.089V236.942H209.864ZM218.752 243.065C218.093 243.065 217.499 242.918 216.971 242.623C216.451 242.32 216.039 241.908 215.736 241.388C215.432 240.859 215.281 240.257 215.281 239.581C215.281 238.896 215.432 238.294 215.736 237.774C216.039 237.254 216.451 236.847 216.971 236.552C217.491 236.257 218.084 236.11 218.752 236.11C219.428 236.11 220.026 236.257 220.546 236.552C221.074 236.847 221.486 237.254 221.781 237.774C222.084 238.294 222.236 238.896 222.236 239.581C222.236 240.257 222.084 240.859 221.781 241.388C221.486 241.908 221.074 242.32 220.546 242.623C220.017 242.918 219.419 243.065 218.752 243.065ZM218.752 242.246C219.246 242.246 219.683 242.138 220.065 241.921C220.446 241.696 220.745 241.384 220.962 240.985C221.187 240.578 221.3 240.11 221.3 239.581C221.3 239.044 221.187 238.576 220.962 238.177C220.745 237.778 220.446 237.471 220.065 237.254C219.683 237.029 219.25 236.916 218.765 236.916C218.279 236.916 217.846 237.029 217.465 237.254C217.083 237.471 216.78 237.778 216.555 238.177C216.329 238.576 216.217 239.044 216.217 239.581C216.217 240.11 216.329 240.578 216.555 240.985C216.78 241.384 217.083 241.696 217.465 241.921C217.846 242.138 218.275 242.246 218.752 242.246ZM231.045 243.065C230.447 243.065 229.91 242.931 229.433 242.662C228.957 242.385 228.58 241.986 228.302 241.466C228.025 240.946 227.886 240.318 227.886 239.581C227.886 238.836 228.025 238.207 228.302 237.696C228.588 237.176 228.97 236.782 229.446 236.513C229.923 236.244 230.456 236.11 231.045 236.11C231.695 236.11 232.276 236.257 232.787 236.552C233.307 236.838 233.715 237.241 234.009 237.761C234.304 238.281 234.451 238.888 234.451 239.581C234.451 240.266 234.304 240.872 234.009 241.401C233.715 241.921 233.307 242.328 232.787 242.623C232.276 242.918 231.695 243.065 231.045 243.065ZM227.522 243V233.354H228.445V238.19L228.315 239.568L228.406 240.946V243H227.522ZM230.98 242.246C231.466 242.246 231.899 242.138 232.28 241.921C232.662 241.696 232.965 241.384 233.19 240.985C233.416 240.578 233.528 240.11 233.528 239.581C233.528 239.044 233.416 238.576 233.19 238.177C232.965 237.778 232.662 237.471 232.28 237.254C231.899 237.029 231.466 236.916 230.98 236.916C230.495 236.916 230.057 237.029 229.667 237.254C229.286 237.471 228.983 237.778 228.757 238.177C228.541 238.576 228.432 239.044 228.432 239.581C228.432 240.11 228.541 240.578 228.757 240.985C228.983 241.384 229.286 241.696 229.667 241.921C230.057 242.138 230.495 242.246 230.98 242.246ZM239.115 243.065C238.456 243.065 237.863 242.918 237.334 242.623C236.814 242.32 236.402 241.908 236.099 241.388C235.796 240.859 235.644 240.257 235.644 239.581C235.644 238.896 235.796 238.294 236.099 237.774C236.402 237.254 236.814 236.847 237.334 236.552C237.854 236.257 238.448 236.11 239.115 236.11C239.791 236.11 240.389 236.257 240.909 236.552C241.438 236.847 241.849 237.254 242.144 237.774C242.447 238.294 242.599 238.896 242.599 239.581C242.599 240.257 242.447 240.859 242.144 241.388C241.849 241.908 241.438 242.32 240.909 242.623C240.38 242.918 239.782 243.065 239.115 243.065ZM239.115 242.246C239.609 242.246 240.047 242.138 240.428 241.921C240.809 241.696 241.108 241.384 241.325 240.985C241.55 240.578 241.663 240.11 241.663 239.581C241.663 239.044 241.55 238.576 241.325 238.177C241.108 237.778 240.809 237.471 240.428 237.254C240.047 237.029 239.613 236.916 239.128 236.916C238.643 236.916 238.209 237.029 237.828 237.254C237.447 237.471 237.143 237.778 236.918 238.177C236.693 238.576 236.58 239.044 236.58 239.581C236.58 240.11 236.693 240.578 236.918 240.985C237.143 241.384 237.447 241.696 237.828 241.921C238.209 242.138 238.638 242.246 239.115 242.246ZM247.265 243.065C246.607 243.065 246.013 242.918 245.484 242.623C244.964 242.32 244.553 241.908 244.249 241.388C243.946 240.859 243.794 240.257 243.794 239.581C243.794 238.896 243.946 238.294 244.249 237.774C244.553 237.254 244.964 236.847 245.484 236.552C246.004 236.257 246.598 236.11 247.265 236.11C247.941 236.11 248.539 236.257 249.059 236.552C249.588 236.847 250 237.254 250.294 237.774C250.598 238.294 250.749 238.896 250.749 239.581C250.749 240.257 250.598 240.859 250.294 241.388C250 241.908 249.588 242.32 249.059 242.623C248.531 242.918 247.933 243.065 247.265 243.065ZM247.265 242.246C247.759 242.246 248.197 242.138 248.578 241.921C248.96 241.696 249.259 241.384 249.475 240.985C249.701 240.578 249.813 240.11 249.813 239.581C249.813 239.044 249.701 238.576 249.475 238.177C249.259 237.778 248.96 237.471 248.578 237.254C248.197 237.029 247.764 236.916 247.278 236.916C246.793 236.916 246.36 237.029 245.978 237.254C245.597 237.471 245.294 237.778 245.068 238.177C244.843 238.576 244.73 239.044 244.73 239.581C244.73 240.11 244.843 240.578 245.068 240.985C245.294 241.384 245.597 241.696 245.978 241.921C246.36 242.138 246.789 242.246 247.265 242.246ZM254.467 243.065C253.903 243.065 253.37 242.987 252.868 242.831C252.365 242.666 251.971 242.463 251.685 242.22L252.101 241.492C252.378 241.7 252.733 241.882 253.167 242.038C253.6 242.185 254.055 242.259 254.532 242.259C255.182 242.259 255.65 242.159 255.936 241.96C256.222 241.752 256.365 241.479 256.365 241.141C256.365 240.89 256.282 240.695 256.118 240.556C255.962 240.409 255.754 240.3 255.494 240.231C255.234 240.153 254.943 240.088 254.623 240.036C254.302 239.984 253.981 239.923 253.661 239.854C253.349 239.785 253.063 239.685 252.803 239.555C252.543 239.416 252.33 239.23 252.166 238.996C252.01 238.762 251.932 238.45 251.932 238.06C251.932 237.687 252.036 237.354 252.244 237.059C252.452 236.764 252.755 236.535 253.154 236.37C253.561 236.197 254.055 236.11 254.636 236.11C255.078 236.11 255.52 236.171 255.962 236.292C256.404 236.405 256.768 236.556 257.054 236.747L256.651 237.488C256.347 237.28 256.022 237.133 255.676 237.046C255.329 236.951 254.982 236.903 254.636 236.903C254.02 236.903 253.565 237.011 253.271 237.228C252.985 237.436 252.842 237.705 252.842 238.034C252.842 238.294 252.92 238.498 253.076 238.645C253.24 238.792 253.453 238.909 253.713 238.996C253.981 239.074 254.272 239.139 254.584 239.191C254.904 239.243 255.221 239.308 255.533 239.386C255.853 239.455 256.144 239.555 256.404 239.685C256.672 239.806 256.885 239.984 257.041 240.218C257.205 240.443 257.288 240.742 257.288 241.115C257.288 241.514 257.175 241.86 256.95 242.155C256.733 242.441 256.412 242.666 255.988 242.831C255.572 242.987 255.065 243.065 254.467 243.065ZM261.139 243.065C260.498 243.065 260.004 242.892 259.657 242.545C259.311 242.198 259.137 241.709 259.137 241.076V234.667H260.06V241.024C260.06 241.423 260.16 241.73 260.359 241.947C260.567 242.164 260.862 242.272 261.243 242.272C261.651 242.272 261.989 242.155 262.257 241.921L262.582 242.584C262.4 242.749 262.179 242.87 261.919 242.948C261.668 243.026 261.408 243.065 261.139 243.065ZM257.915 236.942V236.175H262.14V236.942H257.915ZM89.121 259.065C88.445 259.065 87.8383 258.918 87.301 258.623C86.7723 258.32 86.3563 257.908 86.053 257.388C85.7497 256.859 85.598 256.257 85.598 255.581C85.598 254.896 85.7497 254.294 86.053 253.774C86.3563 253.254 86.7723 252.847 87.301 252.552C87.8383 252.257 88.445 252.11 89.121 252.11C89.7017 252.11 90.226 252.223 90.694 252.448C91.162 252.673 91.5303 253.011 91.799 253.462L91.11 253.93C90.876 253.583 90.5857 253.328 90.239 253.163C89.8923 252.998 89.5153 252.916 89.108 252.916C88.6227 252.916 88.185 253.029 87.795 253.254C87.405 253.471 87.0973 253.778 86.872 254.177C86.6467 254.576 86.534 255.044 86.534 255.581C86.534 256.118 86.6467 256.586 86.872 256.985C87.0973 257.384 87.405 257.696 87.795 257.921C88.185 258.138 88.6227 258.246 89.108 258.246C89.5153 258.246 89.8923 258.164 90.239 257.999C90.5857 257.834 90.876 257.583 91.11 257.245L91.799 257.713C91.5303 258.155 91.162 258.493 90.694 258.727C90.226 258.952 89.7017 259.065 89.121 259.065ZM96.2799 259.065C95.6213 259.065 95.0276 258.918 94.4989 258.623C93.9789 258.32 93.5673 257.908 93.2639 257.388C92.9606 256.859 92.8089 256.257 92.8089 255.581C92.8089 254.896 92.9606 254.294 93.2639 253.774C93.5673 253.254 93.9789 252.847 94.4989 252.552C95.0189 252.257 95.6126 252.11 96.2799 252.11C96.9559 252.11 97.5539 252.257 98.0739 252.552C98.6026 252.847 99.0143 253.254 99.3089 253.774C99.6123 254.294 99.7639 254.896 99.7639 255.581C99.7639 256.257 99.6123 256.859 99.3089 257.388C99.0143 257.908 98.6026 258.32 98.0739 258.623C97.5453 258.918 96.9473 259.065 96.2799 259.065ZM96.2799 258.246C96.7739 258.246 97.2116 258.138 97.5929 257.921C97.9743 257.696 98.2733 257.384 98.4899 256.985C98.7153 256.578 98.8279 256.11 98.8279 255.581C98.8279 255.044 98.7153 254.576 98.4899 254.177C98.2733 253.778 97.9743 253.471 97.5929 253.254C97.2116 253.029 96.7783 252.916 96.2929 252.916C95.8076 252.916 95.3743 253.029 94.9929 253.254C94.6116 253.471 94.3083 253.778 94.0829 254.177C93.8576 254.576 93.7449 255.044 93.7449 255.581C93.7449 256.11 93.8576 256.578 94.0829 256.985C94.3083 257.384 94.6116 257.696 94.9929 257.921C95.3743 258.138 95.8033 258.246 96.2799 258.246ZM105.132 252.11C105.687 252.11 106.172 252.218 106.588 252.435C107.013 252.643 107.342 252.964 107.576 253.397C107.819 253.83 107.94 254.376 107.94 255.035V259H107.017V255.126C107.017 254.407 106.835 253.865 106.471 253.501C106.116 253.128 105.613 252.942 104.963 252.942C104.478 252.942 104.053 253.042 103.689 253.241C103.334 253.432 103.057 253.713 102.857 254.086C102.667 254.45 102.571 254.892 102.571 255.412V259H101.648V252.175H102.532V254.047L102.389 253.696C102.606 253.202 102.953 252.816 103.429 252.539C103.906 252.253 104.474 252.11 105.132 252.11ZM112.062 259L109.033 252.175H109.995L112.777 258.506H112.322L115.143 252.175H116.053L113.011 259H112.062ZM120.061 259.065C119.35 259.065 118.726 258.918 118.189 258.623C117.652 258.32 117.231 257.908 116.928 257.388C116.625 256.859 116.473 256.257 116.473 255.581C116.473 254.905 116.616 254.307 116.902 253.787C117.197 253.267 117.595 252.86 118.098 252.565C118.609 252.262 119.181 252.11 119.814 252.11C120.455 252.11 121.023 252.257 121.517 252.552C122.02 252.838 122.414 253.245 122.7 253.774C122.986 254.294 123.129 254.896 123.129 255.581C123.129 255.624 123.125 255.672 123.116 255.724C123.116 255.767 123.116 255.815 123.116 255.867H117.175V255.178H122.622L122.258 255.451C122.258 254.957 122.15 254.519 121.933 254.138C121.725 253.748 121.439 253.445 121.075 253.228C120.711 253.011 120.291 252.903 119.814 252.903C119.346 252.903 118.926 253.011 118.553 253.228C118.18 253.445 117.89 253.748 117.682 254.138C117.474 254.528 117.37 254.974 117.37 255.477V255.62C117.37 256.14 117.483 256.599 117.708 256.998C117.942 257.388 118.263 257.696 118.67 257.921C119.086 258.138 119.558 258.246 120.087 258.246C120.503 258.246 120.889 258.172 121.244 258.025C121.608 257.878 121.92 257.652 122.18 257.349L122.7 257.947C122.397 258.311 122.015 258.588 121.556 258.779C121.105 258.97 120.607 259.065 120.061 259.065ZM125.008 259V252.175H125.892V254.034L125.801 253.709C125.991 253.189 126.312 252.795 126.763 252.526C127.213 252.249 127.772 252.11 128.44 252.11V253.007C128.405 253.007 128.37 253.007 128.336 253.007C128.301 252.998 128.266 252.994 128.232 252.994C127.512 252.994 126.949 253.215 126.542 253.657C126.134 254.09 125.931 254.71 125.931 255.516V259H125.008ZM132.033 259.065C131.47 259.065 130.937 258.987 130.434 258.831C129.931 258.666 129.537 258.463 129.251 258.22L129.667 257.492C129.944 257.7 130.3 257.882 130.733 258.038C131.166 258.185 131.621 258.259 132.098 258.259C132.748 258.259 133.216 258.159 133.502 257.96C133.788 257.752 133.931 257.479 133.931 257.141C133.931 256.89 133.849 256.695 133.684 256.556C133.528 256.409 133.32 256.3 133.06 256.231C132.8 256.153 132.51 256.088 132.189 256.036C131.868 255.984 131.548 255.923 131.227 255.854C130.915 255.785 130.629 255.685 130.369 255.555C130.109 255.416 129.897 255.23 129.732 254.996C129.576 254.762 129.498 254.45 129.498 254.06C129.498 253.687 129.602 253.354 129.81 253.059C130.018 252.764 130.321 252.535 130.72 252.37C131.127 252.197 131.621 252.11 132.202 252.11C132.644 252.11 133.086 252.171 133.528 252.292C133.97 252.405 134.334 252.556 134.62 252.747L134.217 253.488C133.914 253.28 133.589 253.133 133.242 253.046C132.895 252.951 132.549 252.903 132.202 252.903C131.587 252.903 131.132 253.011 130.837 253.228C130.551 253.436 130.408 253.705 130.408 254.034C130.408 254.294 130.486 254.498 130.642 254.645C130.807 254.792 131.019 254.909 131.279 254.996C131.548 255.074 131.838 255.139 132.15 255.191C132.471 255.243 132.787 255.308 133.099 255.386C133.42 255.455 133.71 255.555 133.97 255.685C134.239 255.806 134.451 255.984 134.607 256.218C134.772 256.443 134.854 256.742 134.854 257.115C134.854 257.514 134.741 257.86 134.516 258.155C134.299 258.441 133.979 258.666 133.554 258.831C133.138 258.987 132.631 259.065 132.033 259.065ZM136.548 259V252.175H137.471V259H136.548ZM137.016 250.667C136.825 250.667 136.665 250.602 136.535 250.472C136.405 250.342 136.34 250.186 136.34 250.004C136.34 249.822 136.405 249.67 136.535 249.549C136.665 249.419 136.825 249.354 137.016 249.354C137.206 249.354 137.367 249.415 137.497 249.536C137.627 249.657 137.692 249.809 137.692 249.991C137.692 250.182 137.627 250.342 137.497 250.472C137.375 250.602 137.215 250.667 137.016 250.667ZM142.821 259.065C142.162 259.065 141.569 258.918 141.04 258.623C140.52 258.32 140.108 257.908 139.805 257.388C139.502 256.859 139.35 256.257 139.35 255.581C139.35 254.896 139.502 254.294 139.805 253.774C140.108 253.254 140.52 252.847 141.04 252.552C141.56 252.257 142.154 252.11 142.821 252.11C143.497 252.11 144.095 252.257 144.615 252.552C145.144 252.847 145.555 253.254 145.85 253.774C146.153 254.294 146.305 254.896 146.305 255.581C146.305 256.257 146.153 256.859 145.85 257.388C145.555 257.908 145.144 258.32 144.615 258.623C144.086 258.918 143.488 259.065 142.821 259.065ZM142.821 258.246C143.315 258.246 143.753 258.138 144.134 257.921C144.515 257.696 144.814 257.384 145.031 256.985C145.256 256.578 145.369 256.11 145.369 255.581C145.369 255.044 145.256 254.576 145.031 254.177C144.814 253.778 144.515 253.471 144.134 253.254C143.753 253.029 143.319 252.916 142.834 252.916C142.349 252.916 141.915 253.029 141.534 253.254C141.153 253.471 140.849 253.778 140.624 254.177C140.399 254.576 140.286 255.044 140.286 255.581C140.286 256.11 140.399 256.578 140.624 256.985C140.849 257.384 141.153 257.696 141.534 257.921C141.915 258.138 142.344 258.246 142.821 258.246ZM151.673 252.11C152.228 252.11 152.713 252.218 153.129 252.435C153.554 252.643 153.883 252.964 154.117 253.397C154.36 253.83 154.481 254.376 154.481 255.035V259H153.558V255.126C153.558 254.407 153.376 253.865 153.012 253.501C152.657 253.128 152.154 252.942 151.504 252.942C151.019 252.942 150.594 253.042 150.23 253.241C149.875 253.432 149.598 253.713 149.398 254.086C149.208 254.45 149.112 254.892 149.112 255.412V259H148.189V252.175H149.073V254.047L148.93 253.696C149.147 253.202 149.494 252.816 149.97 252.539C150.447 252.253 151.015 252.11 151.673 252.11ZM158.808 259.065C158.244 259.065 157.711 258.987 157.209 258.831C156.706 258.666 156.312 258.463 156.026 258.22L156.442 257.492C156.719 257.7 157.074 257.882 157.508 258.038C157.941 258.185 158.396 258.259 158.873 258.259C159.523 258.259 159.991 258.159 160.277 257.96C160.563 257.752 160.706 257.479 160.706 257.141C160.706 256.89 160.623 256.695 160.459 256.556C160.303 256.409 160.095 256.3 159.835 256.231C159.575 256.153 159.284 256.088 158.964 256.036C158.643 255.984 158.322 255.923 158.002 255.854C157.69 255.785 157.404 255.685 157.144 255.555C156.884 255.416 156.671 255.23 156.507 254.996C156.351 254.762 156.273 254.45 156.273 254.06C156.273 253.687 156.377 253.354 156.585 253.059C156.793 252.764 157.096 252.535 157.495 252.37C157.902 252.197 158.396 252.11 158.977 252.11C159.419 252.11 159.861 252.171 160.303 252.292C160.745 252.405 161.109 252.556 161.395 252.747L160.992 253.488C160.688 253.28 160.363 253.133 160.017 253.046C159.67 252.951 159.323 252.903 158.977 252.903C158.361 252.903 157.906 253.011 157.612 253.228C157.326 253.436 157.183 253.705 157.183 254.034C157.183 254.294 157.261 254.498 157.417 254.645C157.581 254.792 157.794 254.909 158.054 254.996C158.322 255.074 158.613 255.139 158.925 255.191C159.245 255.243 159.562 255.308 159.874 255.386C160.194 255.455 160.485 255.555 160.745 255.685C161.013 255.806 161.226 255.984 161.382 256.218C161.546 256.443 161.629 256.742 161.629 257.115C161.629 257.514 161.516 257.86 161.291 258.155C161.074 258.441 160.753 258.666 160.329 258.831C159.913 258.987 159.406 259.065 158.808 259.065ZM171.002 259V257.492L170.963 257.245V254.723C170.963 254.142 170.798 253.696 170.469 253.384C170.148 253.072 169.667 252.916 169.026 252.916C168.584 252.916 168.163 252.99 167.765 253.137C167.366 253.284 167.028 253.479 166.751 253.722L166.335 253.033C166.681 252.738 167.097 252.513 167.583 252.357C168.068 252.192 168.579 252.11 169.117 252.11C170.001 252.11 170.681 252.331 171.158 252.773C171.643 253.206 171.886 253.869 171.886 254.762V259H171.002ZM168.649 259.065C168.137 259.065 167.691 258.983 167.31 258.818C166.937 258.645 166.651 258.411 166.452 258.116C166.252 257.813 166.153 257.466 166.153 257.076C166.153 256.721 166.235 256.4 166.4 256.114C166.573 255.819 166.85 255.585 167.232 255.412C167.622 255.23 168.142 255.139 168.792 255.139H171.145V255.828H168.818C168.159 255.828 167.7 255.945 167.44 256.179C167.188 256.413 167.062 256.703 167.062 257.05C167.062 257.44 167.214 257.752 167.518 257.986C167.821 258.22 168.246 258.337 168.792 258.337C169.312 258.337 169.758 258.22 170.131 257.986C170.512 257.743 170.789 257.397 170.963 256.946L171.171 257.583C170.997 258.034 170.694 258.393 170.261 258.662C169.836 258.931 169.299 259.065 168.649 259.065ZM177.876 252.11C178.431 252.11 178.916 252.218 179.332 252.435C179.757 252.643 180.086 252.964 180.32 253.397C180.563 253.83 180.684 254.376 180.684 255.035V259H179.761V255.126C179.761 254.407 179.579 253.865 179.215 253.501C178.86 253.128 178.357 252.942 177.707 252.942C177.222 252.942 176.797 253.042 176.433 253.241C176.078 253.432 175.801 253.713 175.601 254.086C175.411 254.45 175.315 254.892 175.315 255.412V259H174.392V252.175H175.276V254.047L175.133 253.696C175.35 253.202 175.697 252.816 176.173 252.539C176.65 252.253 177.218 252.11 177.876 252.11ZM185.895 259.065C185.245 259.065 184.66 258.918 184.14 258.623C183.628 258.328 183.225 257.921 182.931 257.401C182.636 256.872 182.489 256.266 182.489 255.581C182.489 254.888 182.636 254.281 182.931 253.761C183.225 253.241 183.628 252.838 184.14 252.552C184.66 252.257 185.245 252.11 185.895 252.11C186.493 252.11 187.026 252.244 187.494 252.513C187.97 252.782 188.347 253.176 188.625 253.696C188.911 254.207 189.054 254.836 189.054 255.581C189.054 256.318 188.915 256.946 188.638 257.466C188.36 257.986 187.983 258.385 187.507 258.662C187.039 258.931 186.501 259.065 185.895 259.065ZM185.96 258.246C186.445 258.246 186.878 258.138 187.26 257.921C187.65 257.696 187.953 257.384 188.17 256.985C188.395 256.578 188.508 256.11 188.508 255.581C188.508 255.044 188.395 254.576 188.17 254.177C187.953 253.778 187.65 253.471 187.26 253.254C186.878 253.029 186.445 252.916 185.96 252.916C185.483 252.916 185.054 253.029 184.673 253.254C184.291 253.471 183.988 253.778 183.763 254.177C183.537 254.576 183.425 255.044 183.425 255.581C183.425 256.11 183.537 256.578 183.763 256.985C183.988 257.384 184.291 257.696 184.673 257.921C185.054 258.138 185.483 258.246 185.96 258.246ZM188.534 259V256.946L188.625 255.568L188.495 254.19V249.354H189.418V259H188.534ZM195.391 259V252.175H196.275V254.034L196.184 253.709C196.374 253.189 196.695 252.795 197.146 252.526C197.596 252.249 198.155 252.11 198.823 252.11V253.007C198.788 253.007 198.753 253.007 198.719 253.007C198.684 252.998 198.649 252.994 198.615 252.994C197.895 252.994 197.332 253.215 196.925 253.657C196.517 254.09 196.314 254.71 196.314 255.516V259H195.391ZM203.342 259.065C202.632 259.065 202.008 258.918 201.47 258.623C200.933 258.32 200.513 257.908 200.209 257.388C199.906 256.859 199.754 256.257 199.754 255.581C199.754 254.905 199.897 254.307 200.183 253.787C200.478 253.267 200.877 252.86 201.379 252.565C201.891 252.262 202.463 252.11 203.095 252.11C203.737 252.11 204.304 252.257 204.798 252.552C205.301 252.838 205.695 253.245 205.981 253.774C206.267 254.294 206.41 254.896 206.41 255.581C206.41 255.624 206.406 255.672 206.397 255.724C206.397 255.767 206.397 255.815 206.397 255.867H200.456V255.178H205.903L205.539 255.451C205.539 254.957 205.431 254.519 205.214 254.138C205.006 253.748 204.72 253.445 204.356 253.228C203.992 253.011 203.572 252.903 203.095 252.903C202.627 252.903 202.207 253.011 201.834 253.228C201.462 253.445 201.171 253.748 200.963 254.138C200.755 254.528 200.651 254.974 200.651 255.477V255.62C200.651 256.14 200.764 256.599 200.989 256.998C201.223 257.388 201.544 257.696 201.951 257.921C202.367 258.138 202.84 258.246 203.368 258.246C203.784 258.246 204.17 258.172 204.525 258.025C204.889 257.878 205.201 257.652 205.461 257.349L205.981 257.947C205.678 258.311 205.297 258.588 204.837 258.779C204.387 258.97 203.888 259.065 203.342 259.065ZM210.447 259.065C209.806 259.065 209.312 258.892 208.965 258.545C208.618 258.198 208.445 257.709 208.445 257.076V250.667H209.368V257.024C209.368 257.423 209.468 257.73 209.667 257.947C209.875 258.164 210.17 258.272 210.551 258.272C210.958 258.272 211.296 258.155 211.565 257.921L211.89 258.584C211.708 258.749 211.487 258.87 211.227 258.948C210.976 259.026 210.716 259.065 210.447 259.065ZM207.223 252.942V252.175H211.448V252.942H207.223ZM216.228 259.065C215.517 259.065 214.893 258.918 214.356 258.623C213.819 258.32 213.398 257.908 213.095 257.388C212.792 256.859 212.64 256.257 212.64 255.581C212.64 254.905 212.783 254.307 213.069 253.787C213.364 253.267 213.762 252.86 214.265 252.565C214.776 252.262 215.348 252.11 215.981 252.11C216.622 252.11 217.19 252.257 217.684 252.552C218.187 252.838 218.581 253.245 218.867 253.774C219.153 254.294 219.296 254.896 219.296 255.581C219.296 255.624 219.292 255.672 219.283 255.724C219.283 255.767 219.283 255.815 219.283 255.867H213.342V255.178H218.789L218.425 255.451C218.425 254.957 218.317 254.519 218.1 254.138C217.892 253.748 217.606 253.445 217.242 253.228C216.878 253.011 216.458 252.903 215.981 252.903C215.513 252.903 215.093 253.011 214.72 253.228C214.347 253.445 214.057 253.748 213.849 254.138C213.641 254.528 213.537 254.974 213.537 255.477V255.62C213.537 256.14 213.65 256.599 213.875 256.998C214.109 257.388 214.43 257.696 214.837 257.921C215.253 258.138 215.725 258.246 216.254 258.246C216.67 258.246 217.056 258.172 217.411 258.025C217.775 257.878 218.087 257.652 218.347 257.349L218.867 257.947C218.564 258.311 218.182 258.588 217.723 258.779C217.272 258.97 216.774 259.065 216.228 259.065ZM224.659 252.11C225.213 252.11 225.699 252.218 226.115 252.435C226.539 252.643 226.869 252.964 227.103 253.397C227.345 253.83 227.467 254.376 227.467 255.035V259H226.544V255.126C226.544 254.407 226.362 253.865 225.998 253.501C225.642 253.128 225.14 252.942 224.49 252.942C224.004 252.942 223.58 253.042 223.216 253.241C222.86 253.432 222.583 253.713 222.384 254.086C222.193 254.45 222.098 254.892 222.098 255.412V259H221.175V252.175H222.059V254.047L221.916 253.696C222.132 253.202 222.479 252.816 222.956 252.539C223.432 252.253 224 252.11 224.659 252.11ZM232.118 259.065C231.477 259.065 230.983 258.892 230.636 258.545C230.289 258.198 230.116 257.709 230.116 257.076V250.667H231.039V257.024C231.039 257.423 231.139 257.73 231.338 257.947C231.546 258.164 231.841 258.272 232.222 258.272C232.629 258.272 232.967 258.155 233.236 257.921L233.561 258.584C233.379 258.749 233.158 258.87 232.898 258.948C232.647 259.026 232.387 259.065 232.118 259.065ZM228.894 252.942V252.175H233.119V252.942H228.894ZM235.241 259V252.175H236.164V259H235.241ZM235.709 250.667C235.518 250.667 235.358 250.602 235.228 250.472C235.098 250.342 235.033 250.186 235.033 250.004C235.033 249.822 235.098 249.67 235.228 249.549C235.358 249.419 235.518 249.354 235.709 249.354C235.9 249.354 236.06 249.415 236.19 249.536C236.32 249.657 236.385 249.809 236.385 249.991C236.385 250.182 236.32 250.342 236.19 250.472C236.069 250.602 235.908 250.667 235.709 250.667ZM241.514 259.065C240.856 259.065 240.262 258.918 239.733 258.623C239.213 258.32 238.802 257.908 238.498 257.388C238.195 256.859 238.043 256.257 238.043 255.581C238.043 254.896 238.195 254.294 238.498 253.774C238.802 253.254 239.213 252.847 239.733 252.552C240.253 252.257 240.847 252.11 241.514 252.11C242.19 252.11 242.788 252.257 243.308 252.552C243.837 252.847 244.249 253.254 244.543 253.774C244.847 254.294 244.998 254.896 244.998 255.581C244.998 256.257 244.847 256.859 244.543 257.388C244.249 257.908 243.837 258.32 243.308 258.623C242.78 258.918 242.182 259.065 241.514 259.065ZM241.514 258.246C242.008 258.246 242.446 258.138 242.827 257.921C243.209 257.696 243.508 257.384 243.724 256.985C243.95 256.578 244.062 256.11 244.062 255.581C244.062 255.044 243.95 254.576 243.724 254.177C243.508 253.778 243.209 253.471 242.827 253.254C242.446 253.029 242.013 252.916 241.527 252.916C241.042 252.916 240.609 253.029 240.227 253.254C239.846 253.471 239.543 253.778 239.317 254.177C239.092 254.576 238.979 255.044 238.979 255.581C238.979 256.11 239.092 256.578 239.317 256.985C239.543 257.384 239.846 257.696 240.227 257.921C240.609 258.138 241.038 258.246 241.514 258.246ZM250.367 252.11C250.921 252.11 251.407 252.218 251.823 252.435C252.247 252.643 252.577 252.964 252.811 253.397C253.053 253.83 253.175 254.376 253.175 255.035V259H252.252V255.126C252.252 254.407 252.07 253.865 251.706 253.501C251.35 253.128 250.848 252.942 250.198 252.942C249.712 252.942 249.288 253.042 248.924 253.241C248.568 253.432 248.291 253.713 248.092 254.086C247.901 254.45 247.806 254.892 247.806 255.412V259H246.883V252.175H247.767V254.047L247.624 253.696C247.84 253.202 248.187 252.816 248.664 252.539C249.14 252.253 249.708 252.11 250.367 252.11ZM255.759 259.065C255.568 259.065 255.404 258.996 255.265 258.857C255.135 258.718 255.07 258.549 255.07 258.35C255.07 258.142 255.135 257.973 255.265 257.843C255.404 257.713 255.568 257.648 255.759 257.648C255.95 257.648 256.11 257.713 256.24 257.843C256.379 257.973 256.448 258.142 256.448 258.35C256.448 258.549 256.379 258.718 256.24 258.857C256.11 258.996 255.95 259.065 255.759 259.065Z" fill="white"/>
<defs>
<filter id="filter0_dddddd_1_17387" x="0" y="0" width="376" height="376" filterUnits="userSpaceOnUse" color-interpolation-filters="sRGB">
<feFlood flood-opacity="0" result="BackgroundImageFix"/>
<feColorMatrix in="SourceAlpha" type="matrix" values="0 0 0 0 0 0 0 0 0 0 0 0 0 0 0 0 0 0 127 0" result="hardAlpha"/>
<feOffset/>
<feGaussianBlur stdDeviation="0.75"/>
<feColorMatrix type="matrix" values="0 0 0 0 0.0509804 0 0 0 0 0.431373 0 0 0 0 0.701961 0 0 0 1 0"/>
<feBlend mode="normal" in2="BackgroundImageFix" result="effect1_dropShadow_1_17387"/>
<feColorMatrix in="SourceAlpha" type="matrix" values="0 0 0 0 0 0 0 0 0 0 0 0 0 0 0 0 0 0 127 0" result="hardAlpha"/>
<feOffset/>
<feGaussianBlur stdDeviation="1.5"/>
<feColorMatrix type="matrix" values="0 0 0 0 0.0509804 0 0 0 0 0.431373 0 0 0 0 0.701961 0 0 0 1 0"/>
<feBlend mode="normal" in2="effect1_dropShadow_1_17387" result="effect2_dropShadow_1_17387"/>
<feColorMatrix in="SourceAlpha" type="matrix" values="0 0 0 0 0 0 0 0 0 0 0 0 0 0 0 0 0 0 127 0" result="hardAlpha"/>
<feOffset/>
<feGaussianBlur stdDeviation="5.25"/>
<feColorMatrix type="matrix" values="0 0 0 0 0.0509804 0 0 0 0 0.431373 0 0 0 0 0.701961 0 0 0 1 0"/>
<feBlend mode="normal" in2="effect2_dropShadow_1_17387" result="effect3_dropShadow_1_17387"/>
<feColorMatrix in="SourceAlpha" type="matrix" values="0 0 0 0 0 0 0 0 0 0 0 0 0 0 0 0 0 0 127 0" result="hardAlpha"/>
<feOffset/>
<feGaussianBlur stdDeviation="10.5"/>
<feColorMatrix type="matrix" values="0 0 0 0 0.0509804 0 0 0 0 0.431373 0 0 0 0 0.701961 0 0 0 1 0"/>
<feBlend mode="normal" in2="effect3_dropShadow_1_17387" result="effect4_dropShadow_1_17387"/>
<feColorMatrix in="SourceAlpha" type="matrix" values="0 0 0 0 0 0 0 0 0 0 0 0 0 0 0 0 0 0 127 0" result="hardAlpha"/>
<feOffset/>
<feGaussianBlur stdDeviation="18"/>
<feColorMatrix type="matrix" values="0 0 0 0 0.0509804 0 0 0 0 0.431373 0 0 0 0 0.701961 0 0 0 1 0"/>
<feBlend mode="normal" in2="effect4_dropShadow_1_17387" result="effect5_dropShadow_1_17387"/>
<feColorMatrix in="SourceAlpha" type="matrix" values="0 0 0 0 0 0 0 0 0 0 0 0 0 0 0 0 0 0 127 0" result="hardAlpha"/>
<feOffset/>
<feGaussianBlur stdDeviation="31.5"/>
<feColorMatrix type="matrix" values="0 0 0 0 0.0509804 0 0 0 0 0.431373 0 0 0 0 0.701961 0 0 0 1 0"/>
<feBlend mode="normal" in2="effect5_dropShadow_1_17387" result="effect6_dropShadow_1_17387"/>
<feBlend mode="normal" in="SourceGraphic" in2="effect6_dropShadow_1_17387" result="shape"/>
</filter>
</defs>
</svg>
